<svg width="24" height="24" viewBox="0 0 24 24" fill="none" xmlns="http://www.w3.org/2000/svg">
<path opacity="0.3" d="M16.1898 2H7.81978C4.17978 2 2.00977 4.17 2.00977 7.81V16.18C2.00977 19.82 4.17978 21.99 7.81978 21.99H16.1898C19.8298 21.99 21.9998 19.82 21.9998 16.18V7.81C21.9998 4.17 19.8298 2 16.1898 2Z" fill="#2161E0"/>
<path d="M8.1796 16.77C8.1596 16.77 8.12961 16.77 8.10961 16.77C7.13961 16.68 6.22961 16.23 5.54961 15.51C3.94961 13.83 3.94961 11.1 5.54961 9.42001L7.73961 7.12C8.51961 6.3 9.56961 5.84 10.6896 5.84C11.8096 5.84 12.8596 6.29 13.6396 7.12C15.2396 8.79999 15.2396 11.53 13.6396 13.21L12.5496 14.36C12.2596 14.66 11.7896 14.67 11.4896 14.39C11.1896 14.1 11.1796 13.63 11.4596 13.33L12.5496 12.18C13.6096 11.07 13.6096 9.26 12.5496 8.16C11.5596 7.12 9.81961 7.12 8.81961 8.16L6.62961 10.46C5.56961 11.57 5.56961 13.38 6.62961 14.48C7.05961 14.94 7.63961 15.22 8.24961 15.28C8.65961 15.32 8.9596 15.69 8.9196 16.1C8.8896 16.48 8.5596 16.77 8.1796 16.77Z" fill="#2161E0"/>
<path d="M13.3092 18.16C12.1892 18.16 11.1392 17.71 10.3592 16.88C8.75918 15.2 8.75918 12.47 10.3592 10.79L11.4492 9.64C11.7392 9.34 12.2092 9.32997 12.5092 9.60997C12.8092 9.89997 12.8192 10.37 12.5392 10.67L11.4492 11.82C10.3892 12.93 10.3892 14.74 11.4492 15.84C12.4392 16.88 14.1792 16.89 15.1792 15.84L17.3692 13.54C18.4292 12.43 18.4292 10.62 17.3692 9.51998C16.9392 9.05998 16.3592 8.77999 15.7492 8.71999C15.3392 8.67999 15.0392 8.30998 15.0792 7.89998C15.1192 7.48998 15.4792 7.18 15.8992 7.23C16.8692 7.33 17.7792 7.76998 18.4592 8.48998C20.0592 10.17 20.0592 12.9 18.4592 14.58L16.2692 16.88C15.4792 17.71 14.4292 18.16 13.3092 18.16Z" fill="#2161E0"/>
</svg>
