<svg width="24" height="24" viewBox="0 0 24 24" fill="none" xmlns="http://www.w3.org/2000/svg">
<path opacity="0.4" d="M10.9598 2.06L5.4598 4.12C4.4098 4.52 3.5498 5.76 3.5498 6.89V14.99C3.5498 15.8 4.0798 16.87 4.7298 17.35L10.2298 21.46C11.1998 22.19 12.7898 22.19 13.7598 21.46L19.2598 17.35C19.9098 16.86 20.4398 15.8 20.4398 14.99V6.89C20.4398 5.77 19.5798 4.52 18.5298 4.13L13.0298 2.07C12.4698 1.85 11.5298 1.85 10.9598 2.06Z" fill="#2161E0"/>
<path d="M10.6602 14.23C10.4702 14.23 10.2802 14.16 10.1302 14.01L8.52023 12.4C8.23023 12.11 8.23023 11.63 8.52023 11.34C8.81023 11.05 9.29023 11.05 9.58023 11.34L10.6602 12.42L14.4302 8.65C14.7202 8.36 15.2002 8.36 15.4902 8.65C15.7802 8.94 15.7802 9.42 15.4902 9.71L11.1902 14.01C11.0402 14.16 10.8502 14.23 10.6602 14.23Z" fill="#2161E0"/>
</svg>
