<svg width="510" height="470" viewBox="0 0 510 470" fill="none" xmlns="http://www.w3.org/2000/svg">
<rect width="510" height="449.099" rx="16" fill="#FFE6E4"/>
<g clip-path="url(#clip0_11234_28038)">
<path d="M330.191 188.173C226.562 219.72 148.797 301.697 155.06 357.739" stroke="#F39FA3" stroke-width="0.756757" stroke-miterlimit="10"/>
<path d="M403.171 326.392C325.806 399.31 165.998 457.778 164.865 355.586C163.732 253.394 390.394 136.749 436.801 216.073C483.211 295.396 294.975 399.102 237.408 398.276" stroke="#F39FA3" stroke-width="0.756757" stroke-miterlimit="10"/>
<path d="M420.298 185.481C435.943 190.967 454.617 214 455.379 232.892" stroke="#F39FA3" stroke-width="0.756757"/>
</g>
<rect x="111" y="115.768" width="269" height="222.553" rx="16" fill="white"/>
<path d="M190.933 187.177H193.028L195.835 194.028H195.946L198.753 187.177H200.849V196.632H199.205V190.136H199.118L196.505 196.604H195.277L192.664 190.122H192.576V196.632H190.933V187.177ZM204.68 196.775C204.231 196.775 203.826 196.695 203.466 196.535C203.109 196.372 202.826 196.131 202.617 195.814C202.411 195.497 202.308 195.107 202.308 194.642C202.308 194.242 202.381 193.911 202.529 193.649C202.677 193.388 202.878 193.178 203.134 193.022C203.389 192.865 203.677 192.746 203.997 192.666C204.32 192.583 204.654 192.523 204.999 192.486C205.414 192.443 205.751 192.404 206.01 192.371C206.268 192.334 206.456 192.278 206.573 192.204C206.693 192.127 206.753 192.009 206.753 191.849V191.821C206.753 191.473 206.65 191.204 206.444 191.013C206.238 190.823 205.941 190.727 205.553 190.727C205.144 190.727 204.819 190.816 204.579 190.995C204.342 191.173 204.182 191.384 204.099 191.627L202.538 191.406C202.661 190.975 202.865 190.615 203.148 190.325C203.431 190.033 203.777 189.815 204.186 189.67C204.596 189.522 205.048 189.448 205.544 189.448C205.885 189.448 206.225 189.488 206.564 189.568C206.902 189.648 207.212 189.781 207.492 189.965C207.772 190.147 207.997 190.395 208.166 190.709C208.338 191.023 208.424 191.415 208.424 191.886V196.632H206.818V195.658H206.762C206.661 195.854 206.518 196.039 206.333 196.211C206.152 196.381 205.922 196.518 205.645 196.622C205.371 196.724 205.05 196.775 204.68 196.775ZM205.114 195.547C205.45 195.547 205.741 195.481 205.987 195.348C206.233 195.213 206.422 195.034 206.555 194.813C206.69 194.591 206.758 194.35 206.758 194.088V193.252C206.705 193.295 206.616 193.335 206.49 193.372C206.367 193.409 206.228 193.442 206.075 193.469C205.921 193.497 205.768 193.522 205.618 193.543C205.467 193.565 205.336 193.583 205.225 193.599C204.976 193.632 204.753 193.688 204.556 193.765C204.359 193.842 204.203 193.949 204.089 194.088C203.976 194.223 203.919 194.399 203.919 194.614C203.919 194.922 204.031 195.154 204.256 195.311C204.48 195.468 204.767 195.547 205.114 195.547ZM210.105 196.632V189.541H211.725V190.723H211.799C211.928 190.313 212.15 189.998 212.464 189.776C212.781 189.551 213.142 189.439 213.549 189.439C213.641 189.439 213.744 189.444 213.858 189.453C213.975 189.459 214.072 189.47 214.149 189.485V191.023C214.078 190.998 213.966 190.976 213.812 190.958C213.661 190.936 213.515 190.926 213.373 190.926C213.069 190.926 212.795 190.992 212.551 191.124C212.311 191.253 212.122 191.433 211.984 191.664C211.845 191.895 211.776 192.161 211.776 192.463V196.632H210.105ZM216.782 194.406L216.778 192.389H217.046L219.594 189.541H221.547L218.412 193.031H218.066L216.782 194.406ZM215.259 196.632V187.177H216.93V196.632H215.259ZM219.709 196.632L217.401 193.405L218.528 192.227L221.708 196.632H219.709ZM225.508 196.77C224.797 196.77 224.183 196.622 223.666 196.327C223.152 196.028 222.756 195.607 222.479 195.062C222.202 194.514 222.064 193.869 222.064 193.128C222.064 192.398 222.202 191.758 222.479 191.207C222.759 190.653 223.15 190.222 223.652 189.915C224.153 189.604 224.743 189.448 225.42 189.448C225.857 189.448 226.269 189.519 226.657 189.661C227.048 189.799 227.393 190.015 227.691 190.307C227.993 190.599 228.23 190.972 228.402 191.424C228.575 191.874 228.661 192.409 228.661 193.031V193.543H222.849V192.417H227.059C227.056 192.097 226.986 191.812 226.851 191.563C226.716 191.31 226.526 191.112 226.283 190.967C226.043 190.823 225.763 190.75 225.443 190.75C225.101 190.75 224.801 190.833 224.543 190.999C224.284 191.163 224.083 191.378 223.938 191.646C223.796 191.91 223.724 192.201 223.721 192.518V193.502C223.721 193.914 223.796 194.268 223.947 194.563C224.098 194.856 224.309 195.08 224.58 195.237C224.851 195.391 225.168 195.468 225.531 195.468C225.774 195.468 225.994 195.434 226.191 195.367C226.388 195.296 226.559 195.193 226.703 195.057C226.848 194.922 226.957 194.754 227.031 194.554L228.591 194.73C228.493 195.142 228.305 195.502 228.028 195.81C227.754 196.115 227.403 196.352 226.976 196.521C226.548 196.687 226.059 196.77 225.508 196.77ZM233.615 189.541V190.833H229.539V189.541H233.615ZM230.545 187.842H232.217V194.499C232.217 194.723 232.25 194.896 232.318 195.016C232.389 195.133 232.481 195.213 232.595 195.256C232.709 195.299 232.835 195.321 232.974 195.321C233.078 195.321 233.174 195.313 233.26 195.297C233.349 195.282 233.417 195.268 233.463 195.256L233.745 196.562C233.655 196.593 233.528 196.627 233.361 196.664C233.198 196.701 232.998 196.722 232.761 196.729C232.343 196.741 231.966 196.678 231.63 196.539C231.295 196.398 231.029 196.179 230.832 195.884C230.638 195.588 230.542 195.219 230.545 194.776V187.842ZM235.013 196.632V189.541H236.684V196.632H235.013ZM235.853 188.534C235.588 188.534 235.361 188.447 235.17 188.271C234.979 188.093 234.884 187.879 234.884 187.629C234.884 187.377 234.979 187.163 235.17 186.988C235.361 186.809 235.588 186.72 235.853 186.72C236.121 186.72 236.349 186.809 236.536 186.988C236.727 187.163 236.823 187.377 236.823 187.629C236.823 187.879 236.727 188.093 236.536 188.271C236.349 188.447 236.121 188.534 235.853 188.534ZM240.074 192.477V196.632H238.403V189.541H240V190.746H240.083C240.246 190.349 240.506 190.033 240.863 189.799C241.223 189.565 241.668 189.448 242.197 189.448C242.687 189.448 243.113 189.553 243.476 189.762C243.842 189.972 244.126 190.275 244.326 190.672C244.529 191.069 244.629 191.55 244.626 192.117V196.632H242.954V192.375C242.954 191.901 242.831 191.53 242.585 191.263C242.342 190.995 242.005 190.861 241.574 190.861C241.282 190.861 241.022 190.926 240.794 191.055C240.569 191.181 240.392 191.364 240.263 191.604C240.137 191.844 240.074 192.135 240.074 192.477ZM249.408 199.438C248.808 199.438 248.293 199.357 247.862 199.194C247.431 199.034 247.085 198.818 246.823 198.547C246.561 198.277 246.38 197.977 246.278 197.647L247.783 197.283C247.851 197.421 247.949 197.558 248.079 197.693C248.208 197.832 248.382 197.946 248.6 198.035C248.822 198.127 249.101 198.173 249.436 198.173C249.91 198.173 250.302 198.058 250.613 197.827C250.924 197.6 251.079 197.224 251.079 196.701V195.357H250.996C250.91 195.53 250.784 195.707 250.618 195.888C250.455 196.07 250.238 196.222 249.967 196.345C249.699 196.468 249.362 196.53 248.956 196.53C248.411 196.53 247.917 196.402 247.474 196.147C247.034 195.888 246.683 195.504 246.421 194.993C246.163 194.479 246.034 193.836 246.034 193.063C246.034 192.284 246.163 191.627 246.421 191.092C246.683 190.553 247.035 190.145 247.479 189.868C247.922 189.588 248.416 189.448 248.96 189.448C249.376 189.448 249.718 189.519 249.985 189.661C250.256 189.799 250.472 189.967 250.632 190.164C250.792 190.358 250.913 190.541 250.996 190.713H251.089V189.541H252.737V196.747C252.737 197.353 252.592 197.855 252.303 198.252C252.014 198.649 251.618 198.946 251.116 199.143C250.615 199.34 250.045 199.438 249.408 199.438ZM249.422 195.219C249.776 195.219 250.078 195.133 250.327 194.96C250.576 194.788 250.766 194.54 250.895 194.217C251.024 193.894 251.089 193.506 251.089 193.054C251.089 192.608 251.024 192.217 250.895 191.881C250.769 191.546 250.581 191.286 250.332 191.101C250.085 190.913 249.782 190.819 249.422 190.819C249.05 190.819 248.739 190.916 248.49 191.11C248.24 191.304 248.053 191.57 247.926 191.909C247.8 192.244 247.737 192.626 247.737 193.054C247.737 193.488 247.8 193.868 247.926 194.194C248.056 194.517 248.245 194.77 248.494 194.951C248.747 195.13 249.056 195.219 249.422 195.219ZM265.841 190.367H264.114C264.065 190.084 263.974 189.833 263.842 189.615C263.709 189.393 263.545 189.205 263.348 189.051C263.151 188.897 262.926 188.782 262.674 188.705C262.424 188.625 262.155 188.585 261.866 188.585C261.352 188.585 260.896 188.714 260.499 188.973C260.102 189.228 259.792 189.604 259.567 190.099C259.342 190.592 259.23 191.193 259.23 191.904C259.23 192.628 259.342 193.237 259.567 193.732C259.795 194.225 260.105 194.597 260.499 194.85C260.896 195.099 261.35 195.224 261.861 195.224C262.144 195.224 262.409 195.187 262.655 195.113C262.905 195.036 263.128 194.923 263.325 194.776C263.525 194.628 263.692 194.446 263.828 194.231C263.966 194.016 264.062 193.769 264.114 193.492L265.841 193.502C265.776 193.951 265.636 194.373 265.421 194.767C265.208 195.16 264.93 195.508 264.585 195.81C264.24 196.108 263.837 196.342 263.375 196.512C262.914 196.678 262.401 196.761 261.838 196.761C261.007 196.761 260.265 196.568 259.613 196.184C258.961 195.799 258.447 195.244 258.071 194.517C257.696 193.791 257.508 192.92 257.508 191.904C257.508 190.886 257.697 190.015 258.076 189.291C258.454 188.565 258.97 188.01 259.622 187.625C260.275 187.24 261.013 187.048 261.838 187.048C262.364 187.048 262.854 187.122 263.306 187.269C263.759 187.417 264.162 187.634 264.516 187.92C264.87 188.203 265.16 188.551 265.388 188.964C265.619 189.373 265.77 189.841 265.841 190.367ZM269.376 196.775C268.926 196.775 268.522 196.695 268.162 196.535C267.805 196.372 267.521 196.131 267.312 195.814C267.106 195.497 267.003 195.107 267.003 194.642C267.003 194.242 267.077 193.911 267.224 193.649C267.372 193.388 267.574 193.178 267.829 193.022C268.085 192.865 268.372 192.746 268.692 192.666C269.016 192.583 269.35 192.523 269.694 192.486C270.11 192.443 270.447 192.404 270.705 192.371C270.964 192.334 271.152 192.278 271.268 192.204C271.388 192.127 271.449 192.009 271.449 191.849V191.821C271.449 191.473 271.345 191.204 271.139 191.013C270.933 190.823 270.636 190.727 270.248 190.727C269.839 190.727 269.514 190.816 269.274 190.995C269.037 191.173 268.877 191.384 268.794 191.627L267.234 191.406C267.357 190.975 267.56 190.615 267.843 190.325C268.126 190.033 268.472 189.815 268.882 189.67C269.291 189.522 269.743 189.448 270.239 189.448C270.581 189.448 270.921 189.488 271.259 189.568C271.598 189.648 271.907 189.781 272.187 189.965C272.467 190.147 272.692 190.395 272.861 190.709C273.033 191.023 273.12 191.415 273.12 191.886V196.632H271.513V195.658H271.458C271.356 195.854 271.213 196.039 271.028 196.211C270.847 196.381 270.618 196.518 270.341 196.622C270.067 196.724 269.745 196.775 269.376 196.775ZM269.81 195.547C270.145 195.547 270.436 195.481 270.682 195.348C270.928 195.213 271.118 195.034 271.25 194.813C271.385 194.591 271.453 194.35 271.453 194.088V193.252C271.401 193.295 271.312 193.335 271.185 193.372C271.062 193.409 270.924 193.442 270.77 193.469C270.616 193.497 270.464 193.522 270.313 193.543C270.162 193.565 270.031 193.583 269.92 193.599C269.671 193.632 269.448 193.688 269.251 193.765C269.054 193.842 268.899 193.949 268.785 194.088C268.671 194.223 268.614 194.399 268.614 194.614C268.614 194.922 268.726 195.154 268.951 195.311C269.176 195.468 269.462 195.547 269.81 195.547ZM274.8 196.632V189.541H276.397V190.746H276.48C276.628 190.339 276.873 190.022 277.214 189.795C277.556 189.564 277.964 189.448 278.438 189.448C278.918 189.448 279.323 189.565 279.652 189.799C279.984 190.03 280.218 190.345 280.354 190.746H280.428C280.585 190.352 280.849 190.038 281.222 189.804C281.597 189.567 282.042 189.448 282.556 189.448C283.208 189.448 283.741 189.655 284.153 190.067C284.565 190.479 284.772 191.081 284.772 191.872V196.632H283.096V192.131C283.096 191.69 282.979 191.369 282.745 191.166C282.511 190.959 282.225 190.856 281.886 190.856C281.483 190.856 281.168 190.983 280.94 191.235C280.715 191.484 280.603 191.809 280.603 192.209V196.632H278.964V192.061C278.964 191.695 278.853 191.403 278.632 191.184C278.413 190.966 278.127 190.856 277.773 190.856C277.533 190.856 277.315 190.918 277.118 191.041C276.921 191.161 276.764 191.332 276.647 191.553C276.53 191.772 276.471 192.027 276.471 192.32V196.632H274.8ZM286.467 199.291V189.541H288.111V190.713H288.207C288.294 190.541 288.415 190.358 288.572 190.164C288.729 189.967 288.941 189.799 289.209 189.661C289.477 189.519 289.819 189.448 290.234 189.448C290.782 189.448 291.276 189.588 291.716 189.868C292.159 190.145 292.51 190.556 292.769 191.101C293.03 191.643 293.161 192.307 293.161 193.095C293.161 193.874 293.033 194.536 292.778 195.08C292.522 195.625 292.175 196.041 291.734 196.327C291.294 196.613 290.796 196.756 290.239 196.756C289.832 196.756 289.495 196.689 289.228 196.553C288.96 196.418 288.745 196.255 288.581 196.064C288.421 195.87 288.297 195.687 288.207 195.514H288.138V199.291H286.467ZM288.106 193.086C288.106 193.545 288.171 193.946 288.3 194.291C288.432 194.636 288.621 194.905 288.868 195.099C289.117 195.29 289.419 195.385 289.772 195.385C290.142 195.385 290.451 195.287 290.7 195.09C290.95 194.89 291.137 194.617 291.264 194.273C291.393 193.925 291.457 193.529 291.457 193.086C291.457 192.646 291.394 192.255 291.268 191.914C291.142 191.572 290.954 191.304 290.705 191.11C290.456 190.916 290.145 190.819 289.772 190.819C289.415 190.819 289.112 190.913 288.863 191.101C288.614 191.289 288.424 191.552 288.295 191.89C288.169 192.229 288.106 192.628 288.106 193.086ZM296.633 196.775C296.183 196.775 295.778 196.695 295.418 196.535C295.061 196.372 294.778 196.131 294.569 195.814C294.363 195.497 294.26 195.107 294.26 194.642C294.26 194.242 294.334 193.911 294.481 193.649C294.629 193.388 294.831 193.178 295.086 193.022C295.341 192.865 295.629 192.746 295.949 192.666C296.272 192.583 296.606 192.523 296.951 192.486C297.367 192.443 297.704 192.404 297.962 192.371C298.221 192.334 298.408 192.278 298.525 192.204C298.645 192.127 298.705 192.009 298.705 191.849V191.821C298.705 191.473 298.602 191.204 298.396 191.013C298.19 190.823 297.893 190.727 297.505 190.727C297.096 190.727 296.771 190.816 296.531 190.995C296.294 191.173 296.134 191.384 296.051 191.627L294.491 191.406C294.614 190.975 294.817 190.615 295.1 190.325C295.383 190.033 295.729 189.815 296.139 189.67C296.548 189.522 297 189.448 297.496 189.448C297.837 189.448 298.178 189.488 298.516 189.568C298.855 189.648 299.164 189.781 299.444 189.965C299.724 190.147 299.949 190.395 300.118 190.709C300.29 191.023 300.377 191.415 300.377 191.886V196.632H298.77V195.658H298.715C298.613 195.854 298.47 196.039 298.285 196.211C298.104 196.381 297.874 196.518 297.597 196.622C297.323 196.724 297.002 196.775 296.633 196.775ZM297.066 195.547C297.402 195.547 297.693 195.481 297.939 195.348C298.185 195.213 298.374 195.034 298.507 194.813C298.642 194.591 298.71 194.35 298.71 194.088V193.252C298.658 193.295 298.568 193.335 298.442 193.372C298.319 193.409 298.181 193.442 298.027 193.469C297.873 193.497 297.72 193.522 297.57 193.543C297.419 193.565 297.288 193.583 297.177 193.599C296.928 193.632 296.705 193.688 296.508 193.765C296.311 193.842 296.156 193.949 296.042 194.088C295.928 194.223 295.871 194.399 295.871 194.614C295.871 194.922 295.983 195.154 296.208 195.311C296.432 195.468 296.719 195.547 297.066 195.547ZM302.057 196.632V189.541H303.728V196.632H302.057ZM302.897 188.534C302.632 188.534 302.405 188.447 302.214 188.271C302.023 188.093 301.928 187.879 301.928 187.629C301.928 187.377 302.023 187.163 302.214 186.988C302.405 186.809 302.632 186.72 302.897 186.72C303.165 186.72 303.393 186.809 303.58 186.988C303.771 187.163 303.867 187.377 303.867 187.629C303.867 187.879 303.771 188.093 303.58 188.271C303.393 188.447 303.165 188.534 302.897 188.534ZM308.53 199.438C307.93 199.438 307.415 199.357 306.984 199.194C306.553 199.034 306.207 198.818 305.945 198.547C305.684 198.277 305.502 197.977 305.4 197.647L306.905 197.283C306.973 197.421 307.072 197.558 307.201 197.693C307.33 197.832 307.504 197.946 307.722 198.035C307.944 198.127 308.223 198.173 308.558 198.173C309.032 198.173 309.424 198.058 309.735 197.827C310.046 197.6 310.202 197.224 310.202 196.701V195.357H310.118C310.032 195.53 309.906 195.707 309.74 195.888C309.577 196.07 309.36 196.222 309.089 196.345C308.821 196.468 308.484 196.53 308.078 196.53C307.533 196.53 307.039 196.402 306.596 196.147C306.156 195.888 305.805 195.504 305.544 194.993C305.285 194.479 305.156 193.836 305.156 193.063C305.156 192.284 305.285 191.627 305.544 191.092C305.805 190.553 306.157 190.145 306.601 189.868C307.044 189.588 307.538 189.448 308.083 189.448C308.498 189.448 308.84 189.519 309.107 189.661C309.378 189.799 309.594 189.967 309.754 190.164C309.914 190.358 310.035 190.541 310.118 190.713H310.211V189.541H311.859V196.747C311.859 197.353 311.714 197.855 311.425 198.252C311.136 198.649 310.74 198.946 310.238 199.143C309.737 199.34 309.167 199.438 308.53 199.438ZM308.544 195.219C308.898 195.219 309.2 195.133 309.449 194.96C309.698 194.788 309.888 194.54 310.017 194.217C310.146 193.894 310.211 193.506 310.211 193.054C310.211 192.608 310.146 192.217 310.017 191.881C309.891 191.546 309.703 191.286 309.454 191.101C309.207 190.913 308.904 190.819 308.544 190.819C308.172 190.819 307.861 190.916 307.612 191.11C307.362 191.304 307.175 191.57 307.048 191.909C306.922 192.244 306.859 192.626 306.859 193.054C306.859 193.488 306.922 193.868 307.048 194.194C307.178 194.517 307.367 194.77 307.616 194.951C307.869 195.13 308.178 195.219 308.544 195.219ZM315.243 192.477V196.632H313.572V189.541H315.169V190.746H315.252C315.415 190.349 315.675 190.033 316.032 189.799C316.392 189.565 316.837 189.448 317.366 189.448C317.856 189.448 318.282 189.553 318.645 189.762C319.011 189.972 319.294 190.275 319.494 190.672C319.698 191.069 319.798 191.55 319.795 192.117V196.632H318.123V192.375C318.123 191.901 318 191.53 317.754 191.263C317.511 190.995 317.174 190.861 316.743 190.861C316.451 190.861 316.191 190.926 315.963 191.055C315.738 191.181 315.561 191.364 315.432 191.604C315.306 191.844 315.243 192.135 315.243 192.477Z" fill="#54547A"/>
<path d="M217.865 168.704C217.783 168.445 217.672 168.213 217.533 168.009C217.396 167.802 217.233 167.625 217.043 167.481C216.852 167.333 216.635 167.221 216.391 167.144C216.149 167.067 215.884 167.029 215.594 167.029C215.102 167.029 214.659 167.155 214.264 167.408C213.869 167.661 213.557 168.032 213.327 168.52C213.099 169.006 212.986 169.601 212.986 170.306C212.986 171.013 213.101 171.611 213.331 172.1C213.561 172.588 213.876 172.959 214.277 173.212C214.678 173.465 215.134 173.591 215.645 173.591C216.119 173.591 216.533 173.495 216.885 173.302C217.24 173.108 217.514 172.836 217.707 172.483C217.903 172.128 218.001 171.711 218.001 171.231L218.342 171.294H215.845V170.208H219.276V171.201C219.276 171.934 219.119 172.57 218.807 173.11C218.497 173.647 218.068 174.061 217.52 174.354C216.974 174.647 216.349 174.793 215.645 174.793C214.855 174.793 214.162 174.611 213.565 174.248C212.972 173.884 212.509 173.368 212.176 172.701C211.844 172.03 211.678 171.235 211.678 170.314C211.678 169.618 211.774 168.993 211.967 168.439C212.161 167.885 212.432 167.415 212.781 167.029C213.134 166.64 213.547 166.343 214.021 166.138C214.499 165.931 215.02 165.827 215.585 165.827C216.057 165.827 216.496 165.897 216.902 166.036C217.311 166.175 217.675 166.373 217.993 166.628C218.314 166.884 218.58 167.188 218.79 167.54C219 167.89 219.142 168.277 219.216 168.704H217.865ZM223.602 174.806C222.988 174.806 222.453 174.665 221.995 174.384C221.538 174.103 221.183 173.709 220.93 173.204C220.677 172.698 220.551 172.107 220.551 171.431C220.551 170.752 220.677 170.158 220.93 169.65C221.183 169.141 221.538 168.746 221.995 168.465C222.453 168.184 222.988 168.043 223.602 168.043C224.216 168.043 224.751 168.184 225.208 168.465C225.666 168.746 226.021 169.141 226.274 169.65C226.527 170.158 226.653 170.752 226.653 171.431C226.653 172.107 226.527 172.698 226.274 173.204C226.021 173.709 225.666 174.103 225.208 174.384C224.751 174.665 224.216 174.806 223.602 174.806ZM223.606 173.736C224.004 173.736 224.333 173.631 224.595 173.421C224.856 173.211 225.049 172.931 225.174 172.581C225.302 172.232 225.366 171.847 225.366 171.427C225.366 171.009 225.302 170.625 225.174 170.276C225.049 169.924 224.856 169.641 224.595 169.428C224.333 169.215 224.004 169.108 223.606 169.108C223.206 169.108 222.873 169.215 222.609 169.428C222.348 169.641 222.153 169.924 222.025 170.276C221.9 170.625 221.838 171.009 221.838 171.427C221.838 171.847 221.9 172.232 222.025 172.581C222.153 172.931 222.348 173.211 222.609 173.421C222.873 173.631 223.206 173.736 223.606 173.736ZM231.353 174.674V165.946H232.627V169.189H232.704C232.778 169.053 232.885 168.895 233.024 168.716C233.163 168.537 233.356 168.381 233.603 168.248C233.85 168.111 234.177 168.043 234.583 168.043C235.112 168.043 235.583 168.177 235.998 168.444C236.413 168.711 236.738 169.096 236.974 169.598C237.213 170.101 237.332 170.706 237.332 171.414C237.332 172.121 237.214 172.728 236.978 173.233C236.743 173.736 236.419 174.124 236.007 174.397C235.595 174.667 235.125 174.802 234.596 174.802C234.199 174.802 233.873 174.735 233.62 174.601C233.37 174.468 233.174 174.311 233.032 174.133C232.89 173.954 232.781 173.794 232.704 173.655H232.598V174.674H231.353ZM232.602 171.401C232.602 171.861 232.669 172.265 232.802 172.611C232.936 172.958 233.129 173.229 233.382 173.425C233.635 173.618 233.944 173.715 234.311 173.715C234.691 173.715 235.01 173.614 235.265 173.412C235.521 173.208 235.714 172.931 235.845 172.581C235.978 172.232 236.045 171.838 236.045 171.401C236.045 170.969 235.98 170.581 235.849 170.238C235.721 169.894 235.528 169.623 235.27 169.424C235.014 169.225 234.694 169.125 234.311 169.125C233.941 169.125 233.629 169.221 233.373 169.411C233.12 169.601 232.929 169.867 232.798 170.208C232.667 170.549 232.602 170.946 232.602 171.401ZM240.668 174.819C240.253 174.819 239.878 174.742 239.543 174.588C239.207 174.432 238.942 174.206 238.746 173.911C238.553 173.615 238.456 173.253 238.456 172.824C238.456 172.455 238.527 172.151 238.669 171.912C238.811 171.674 239.003 171.485 239.244 171.346C239.486 171.206 239.756 171.101 240.054 171.03C240.352 170.959 240.656 170.905 240.966 170.868C241.358 170.823 241.676 170.786 241.92 170.758C242.165 170.726 242.342 170.677 242.453 170.608C242.564 170.54 242.619 170.429 242.619 170.276V170.246C242.619 169.874 242.514 169.586 242.304 169.381C242.097 169.177 241.787 169.074 241.375 169.074C240.946 169.074 240.608 169.169 240.361 169.36C240.116 169.547 239.947 169.756 239.854 169.986L238.656 169.713C238.798 169.316 239.006 168.995 239.278 168.75C239.554 168.503 239.871 168.324 240.229 168.213C240.587 168.1 240.963 168.043 241.358 168.043C241.619 168.043 241.896 168.074 242.189 168.137C242.484 168.196 242.76 168.307 243.016 168.469C243.274 168.631 243.486 168.863 243.651 169.164C243.815 169.462 243.898 169.85 243.898 170.327V174.674H242.653V173.779H242.602C242.52 173.944 242.396 174.106 242.232 174.265C242.067 174.424 241.855 174.556 241.597 174.661C241.338 174.766 241.028 174.819 240.668 174.819ZM240.945 173.796C241.297 173.796 241.598 173.726 241.848 173.587C242.101 173.448 242.293 173.266 242.423 173.042C242.557 172.814 242.624 172.571 242.624 172.313V171.469C242.578 171.515 242.49 171.557 242.359 171.597C242.232 171.634 242.085 171.667 241.92 171.695C241.756 171.721 241.595 171.745 241.439 171.767C241.283 171.787 241.152 171.804 241.047 171.819C240.8 171.85 240.574 171.902 240.369 171.976C240.168 172.05 240.006 172.157 239.884 172.296C239.764 172.432 239.705 172.614 239.705 172.841C239.705 173.157 239.821 173.395 240.054 173.557C240.287 173.716 240.584 173.796 240.945 173.796ZM248.352 174.806C247.718 174.806 247.173 174.662 246.716 174.375C246.261 174.086 245.912 173.686 245.667 173.178C245.423 172.669 245.301 172.087 245.301 171.431C245.301 170.766 245.426 170.179 245.676 169.671C245.926 169.16 246.278 168.76 246.733 168.473C247.187 168.186 247.723 168.043 248.339 168.043C248.836 168.043 249.279 168.135 249.669 168.32C250.058 168.502 250.372 168.758 250.61 169.087C250.852 169.417 250.995 169.802 251.041 170.242H249.801C249.733 169.935 249.576 169.671 249.332 169.449C249.091 169.228 248.767 169.117 248.36 169.117C248.005 169.117 247.694 169.211 247.427 169.398C247.163 169.583 246.957 169.847 246.809 170.191C246.662 170.532 246.588 170.935 246.588 171.401C246.588 171.878 246.66 172.29 246.805 172.637C246.95 172.983 247.154 173.252 247.419 173.442C247.686 173.633 248 173.728 248.36 173.728C248.602 173.728 248.821 173.684 249.017 173.596C249.216 173.505 249.382 173.375 249.515 173.208C249.652 173.04 249.747 172.838 249.801 172.603H251.041C250.995 173.026 250.858 173.404 250.627 173.736C250.397 174.069 250.089 174.33 249.703 174.52C249.319 174.711 248.869 174.806 248.352 174.806ZM253.575 172.454L253.567 170.898H253.788L256.396 168.128H257.922L254.947 171.282H254.747L253.575 172.454ZM252.403 174.674V165.946H253.678V174.674H252.403ZM256.537 174.674L254.193 171.563L255.071 170.672L258.101 174.674H256.537Z" fill="#8D8DAE"/>
<path d="M196.381 165.621L192.334 169.66L196.381 173.698" stroke="#6F6F87" stroke-width="1.5" stroke-miterlimit="10" stroke-linecap="round" stroke-linejoin="round"/>
<path d="M203.667 169.66H192.447" stroke="#6F6F87" stroke-width="1.5" stroke-miterlimit="10" stroke-linecap="round" stroke-linejoin="round"/>
<line x1="111" y1="147.204" x2="380" y2="147.204" stroke="#E9E9F1"/>
<ellipse cx="135" cy="131.736" rx="4" ry="3.99199" fill="#FF6051"/>
<ellipse cx="148" cy="131.736" rx="4" ry="3.99199" fill="#FEBE05"/>
<ellipse cx="161" cy="131.736" rx="4" ry="3.99199" fill="#1ECB3D"/>
<line x1="175.5" y1="157.684" x2="175.5" y2="325.347" stroke="#E9E9F1"/>
<g opacity="0.5" clip-path="url(#clip1_11234_28038)">
<path d="M133 157.684C126.926 157.684 122 162.599 122 168.662C122 174.724 126.925 179.639 133 179.639C139.075 179.639 144 174.724 144 168.662C144 162.599 139.075 157.684 133 157.684ZM133 160.966C135.01 160.966 136.639 162.592 136.639 164.598C136.639 166.603 135.01 168.229 133 168.229C130.991 168.229 129.362 166.603 129.362 164.598C129.362 162.592 130.991 160.966 133 160.966ZM132.998 176.769C130.993 176.769 129.157 176.04 127.741 174.834C127.396 174.541 127.197 174.11 127.197 173.658C127.197 171.625 128.846 169.997 130.884 169.997H135.117C137.156 169.997 138.799 171.625 138.799 173.658C138.799 174.111 138.601 174.54 138.255 174.834C136.839 176.04 135.003 176.769 132.998 176.769Z" fill="#8D8DAE"/>
</g>
<rect x="122" y="187.624" width="25" height="3.99199" rx="1.996" fill="#C6C6D7"/>
<rect opacity="0.5" x="122" y="194.61" width="31" height="3.99199" rx="1.996" fill="#C6C6D7"/>
<rect x="190" y="214.57" width="28" height="27.9439" rx="6" fill="#D4D4E3"/>
<rect x="228" y="219.56" width="54" height="5.98799" rx="2" fill="#D4D4E3"/>
<rect opacity="0.5" x="228" y="231.536" width="72" height="5.98799" rx="2" fill="#D0D0DF"/>
<rect x="190" y="252.493" width="28" height="27.9439" rx="6" fill="#D4D4E3"/>
<rect x="228" y="257.483" width="100" height="5.98799" rx="2" fill="#D4D4E3"/>
<rect opacity="0.5" x="228" y="269.459" width="79" height="5.98799" rx="2" fill="#D0D0DF"/>
<rect x="190" y="290.417" width="28" height="27.9439" rx="6" fill="#D4D4E3"/>
<rect x="228" y="295.407" width="118" height="5.98799" rx="2" fill="#D4D4E3"/>
<rect opacity="0.5" x="228" y="307.383" width="94" height="5.98799" rx="2" fill="#D0D0DF"/>
<rect opacity="0.5" x="122" y="321.355" width="17" height="3.99199" rx="1.996" fill="#C6C6D7"/>
<rect opacity="0.5" x="130" y="220.557" width="34" height="3.99199" rx="1.996" fill="#C6C6D7"/>
<ellipse cx="124" cy="222.553" rx="2" ry="1.996" fill="#E3E3EB"/>
<rect opacity="0.5" x="130" y="234.53" width="34" height="3.99199" rx="1.996" fill="#C6C6D7"/>
<ellipse cx="124" cy="236.526" rx="2" ry="1.996" fill="#E3E3EB"/>
<rect opacity="0.5" x="130" y="248.501" width="34" height="3.99199" rx="1.996" fill="#C6C6D7"/>
<ellipse cx="124" cy="250.497" rx="2" ry="1.996" fill="#E3E3EB"/>
<rect opacity="0.5" x="130" y="262.473" width="34" height="3.99199" rx="1.996" fill="#C6C6D7"/>
<ellipse cx="124" cy="264.469" rx="2" ry="1.996" fill="#E3E3EB"/>
<rect opacity="0.5" x="130" y="276.445" width="34" height="3.99199" rx="1.996" fill="#C6C6D7"/>
<ellipse cx="124" cy="278.441" rx="2" ry="1.996" fill="#E3E3EB"/>
<g filter="url(#filter0_d_11234_28038)">
<rect x="60" y="289.419" width="161" height="84.8298" rx="10" fill="white"/>
</g>
<rect x="199" y="334.329" width="8" height="25.9479" fill="#2161E0"/>
<rect x="188" y="334.329" width="8" height="25.9479" fill="#E7EFFF"/>
<rect x="177" y="340.317" width="8" height="19.96" fill="#E7EFFF"/>
<rect x="166" y="326.345" width="8" height="33.9319" fill="#E7EFFF"/>
<rect x="155" y="337.323" width="8" height="22.9539" fill="#E7EFFF"/>
<rect x="144" y="342.313" width="8" height="17.964" fill="#E7EFFF"/>
<rect x="133" y="356.285" width="8" height="3.99199" fill="#E7EFFF"/>
<path d="M75.5547 314.391H74.2734L77.1523 306.391H78.5469L81.4258 314.391H80.1445L77.8828 307.844H77.8203L75.5547 314.391ZM75.7695 311.259H79.9258V312.274H75.7695V311.259ZM82.4424 306.391L84.6689 312.907H84.7588L86.9854 306.391H88.29L85.4111 314.391H84.0166L81.1377 306.391H82.4424ZM94.4619 308.919C94.3864 308.682 94.2848 308.469 94.1572 308.282C94.0322 308.092 93.8825 307.93 93.708 307.798C93.5335 307.662 93.3343 307.559 93.1104 307.489C92.889 307.419 92.6455 307.384 92.3799 307.384C91.9294 307.384 91.5231 307.499 91.1611 307.731C90.7992 307.963 90.5127 308.303 90.3018 308.751C90.0934 309.196 89.9893 309.742 89.9893 310.387C89.9893 311.036 90.0947 311.584 90.3057 312.032C90.5166 312.48 90.8057 312.82 91.1729 313.052C91.54 313.283 91.958 313.399 92.4268 313.399C92.8617 313.399 93.2406 313.311 93.5635 313.134C93.889 312.956 94.1403 312.706 94.3174 312.384C94.4971 312.058 94.5869 311.675 94.5869 311.235L94.8994 311.294H92.6104V310.298H95.7549V311.208C95.7549 311.88 95.6117 312.463 95.3252 312.958C95.0413 313.45 94.6481 313.83 94.1455 314.098C93.6455 314.367 93.0726 314.501 92.4268 314.501C91.7028 314.501 91.0674 314.334 90.5205 314.001C89.9762 313.667 89.5518 313.195 89.2471 312.583C88.9424 311.968 88.79 311.239 88.79 310.395C88.79 309.757 88.8786 309.184 89.0557 308.677C89.2327 308.169 89.4814 307.738 89.8018 307.384C90.1247 307.027 90.5036 306.755 90.9385 306.567C91.376 306.377 91.8538 306.282 92.3721 306.282C92.8044 306.282 93.2067 306.346 93.5791 306.473C93.9541 306.601 94.2874 306.782 94.5791 307.016C94.8734 307.251 95.1169 307.529 95.3096 307.852C95.5023 308.173 95.6325 308.528 95.7002 308.919H94.4619ZM100.198 314.391V306.391H103.05C103.67 306.391 104.184 306.498 104.593 306.712C105.004 306.925 105.312 307.221 105.515 307.598C105.718 307.973 105.819 308.407 105.819 308.899C105.819 309.389 105.716 309.82 105.511 310.192C105.308 310.562 105 310.85 104.589 311.055C104.18 311.261 103.666 311.364 103.046 311.364H100.886V310.325H102.937C103.327 310.325 103.645 310.269 103.89 310.157C104.137 310.045 104.318 309.882 104.433 309.669C104.547 309.455 104.604 309.199 104.604 308.899C104.604 308.597 104.546 308.335 104.429 308.114C104.314 307.893 104.133 307.723 103.886 307.606C103.641 307.486 103.319 307.427 102.921 307.427H101.405V314.391H100.198ZM104.147 310.782L106.124 314.391H104.749L102.812 310.782H104.147ZM109.705 314.512C109.114 314.512 108.605 314.386 108.178 314.134C107.753 313.878 107.425 313.52 107.193 313.059C106.964 312.596 106.85 312.053 106.85 311.43C106.85 310.816 106.964 310.274 107.193 309.805C107.425 309.337 107.748 308.971 108.162 308.708C108.579 308.445 109.066 308.313 109.623 308.313C109.962 308.313 110.29 308.369 110.607 308.481C110.925 308.593 111.21 308.769 111.463 309.009C111.715 309.248 111.915 309.559 112.061 309.942C112.206 310.322 112.279 310.785 112.279 311.329V311.743H107.51V310.868H111.135C111.135 310.561 111.072 310.288 110.947 310.052C110.822 309.812 110.646 309.623 110.42 309.485C110.196 309.347 109.933 309.278 109.631 309.278C109.303 309.278 109.016 309.359 108.771 309.52C108.529 309.679 108.342 309.887 108.209 310.145C108.079 310.4 108.014 310.678 108.014 310.977V311.661C108.014 312.062 108.084 312.403 108.225 312.684C108.368 312.966 108.567 313.18 108.822 313.329C109.077 313.475 109.376 313.548 109.717 313.548C109.938 313.548 110.14 313.516 110.322 313.454C110.505 313.389 110.662 313.292 110.795 313.165C110.928 313.037 111.029 312.88 111.1 312.692L112.205 312.891C112.117 313.217 111.958 313.502 111.729 313.747C111.502 313.989 111.217 314.178 110.873 314.313C110.532 314.446 110.143 314.512 109.705 314.512ZM115.321 314.524C114.941 314.524 114.597 314.454 114.29 314.313C113.983 314.17 113.739 313.963 113.56 313.692C113.382 313.421 113.294 313.089 113.294 312.696C113.294 312.358 113.359 312.079 113.489 311.86C113.619 311.641 113.795 311.468 114.017 311.341C114.238 311.213 114.485 311.117 114.759 311.052C115.032 310.986 115.311 310.937 115.595 310.903C115.954 310.861 116.246 310.828 116.47 310.802C116.694 310.773 116.856 310.727 116.958 310.665C117.06 310.602 117.11 310.501 117.11 310.36V310.333C117.11 309.992 117.014 309.727 116.821 309.54C116.631 309.352 116.347 309.259 115.97 309.259C115.576 309.259 115.267 309.346 115.04 309.52C114.816 309.692 114.661 309.884 114.575 310.094L113.478 309.844C113.608 309.48 113.798 309.186 114.048 308.962C114.3 308.735 114.591 308.571 114.919 308.469C115.247 308.365 115.592 308.313 115.954 308.313C116.194 308.313 116.448 308.342 116.716 308.399C116.987 308.454 117.239 308.555 117.474 308.704C117.711 308.852 117.905 309.065 118.056 309.341C118.207 309.614 118.282 309.969 118.282 310.407V314.391H117.142V313.571H117.095C117.019 313.722 116.906 313.871 116.755 314.016C116.604 314.162 116.41 314.283 116.173 314.38C115.936 314.476 115.652 314.524 115.321 314.524ZM115.575 313.587C115.898 313.587 116.174 313.523 116.403 313.395C116.635 313.268 116.811 313.101 116.931 312.895C117.053 312.687 117.114 312.464 117.114 312.227V311.454C117.073 311.496 116.992 311.535 116.872 311.571C116.755 311.605 116.621 311.635 116.47 311.661C116.319 311.684 116.172 311.706 116.028 311.727C115.885 311.746 115.765 311.761 115.669 311.774C115.442 311.803 115.235 311.851 115.048 311.919C114.863 311.986 114.715 312.084 114.603 312.212C114.493 312.337 114.438 312.503 114.438 312.712C114.438 313.001 114.545 313.219 114.759 313.368C114.972 313.514 115.244 313.587 115.575 313.587ZM122.365 314.512C121.785 314.512 121.285 314.381 120.865 314.118C120.449 313.852 120.128 313.486 119.904 313.02C119.68 312.554 119.568 312.02 119.568 311.419C119.568 310.809 119.683 310.272 119.912 309.805C120.141 309.337 120.464 308.971 120.881 308.708C121.298 308.445 121.788 308.313 122.354 308.313C122.809 308.313 123.215 308.398 123.572 308.567C123.929 308.734 124.217 308.968 124.436 309.27C124.657 309.572 124.788 309.925 124.83 310.329H123.693C123.631 310.048 123.488 309.805 123.264 309.602C123.042 309.399 122.745 309.298 122.373 309.298C122.048 309.298 121.762 309.384 121.518 309.555C121.275 309.725 121.087 309.967 120.951 310.282C120.816 310.594 120.748 310.964 120.748 311.391C120.748 311.829 120.814 312.206 120.947 312.524C121.08 312.842 121.268 313.088 121.51 313.262C121.755 313.437 122.042 313.524 122.373 313.524C122.594 313.524 122.795 313.484 122.975 313.403C123.157 313.32 123.309 313.201 123.432 313.048C123.557 312.894 123.644 312.709 123.693 312.493H124.83C124.788 312.881 124.662 313.227 124.451 313.532C124.24 313.837 123.958 314.076 123.604 314.251C123.252 314.425 122.839 314.512 122.365 314.512ZM127.247 310.829V314.391H126.079V306.391H127.231V309.368H127.306C127.446 309.045 127.661 308.788 127.95 308.598C128.239 308.408 128.617 308.313 129.083 308.313C129.494 308.313 129.854 308.398 130.161 308.567C130.471 308.736 130.711 308.989 130.88 309.325C131.052 309.658 131.138 310.075 131.138 310.575V314.391H129.97V310.716C129.97 310.275 129.856 309.934 129.63 309.692C129.403 309.447 129.088 309.325 128.685 309.325C128.409 309.325 128.161 309.384 127.942 309.501C127.726 309.618 127.556 309.79 127.431 310.016C127.308 310.24 127.247 310.511 127.247 310.829Z" fill="#54547A"/>
<path d="M78.9538 337.5C78.1335 337.5 77.4038 337.367 76.7646 337.101C76.1289 336.831 75.63 336.464 75.2678 335.998C74.9055 335.533 74.7244 335.006 74.7244 334.416C74.7244 333.962 74.8274 333.545 75.0334 333.165C75.2429 332.781 75.527 332.463 75.8857 332.211C76.2443 331.955 76.6456 331.792 77.0895 331.721V331.646C76.5071 331.529 76.0348 331.247 75.6726 330.799C75.3104 330.348 75.1293 329.825 75.1293 329.228C75.1293 328.663 75.2944 328.161 75.6246 327.721C75.9549 327.277 76.4077 326.929 76.983 326.677C77.5618 326.421 78.2188 326.293 78.9538 326.293C79.6889 326.293 80.3441 326.421 80.9194 326.677C81.4982 326.932 81.9528 327.282 82.283 327.726C82.6133 328.166 82.7802 328.667 82.7837 329.228C82.7802 329.828 82.5955 330.352 82.2298 330.799C81.864 331.247 81.3952 331.529 80.8235 331.646V331.721C81.2603 331.792 81.6563 331.955 82.0114 332.211C82.37 332.463 82.6541 332.781 82.8636 333.165C83.0767 333.545 83.185 333.962 83.1886 334.416C83.185 335.006 83.0021 335.533 82.6399 335.998C82.2777 336.464 81.777 336.831 81.1378 337.101C80.5021 337.367 79.7741 337.5 78.9538 337.5ZM78.9538 335.807C79.3196 335.807 79.6392 335.741 79.9126 335.609C80.1861 335.475 80.3991 335.29 80.5518 335.056C80.7081 334.818 80.7862 334.544 80.7862 334.235C80.7862 333.919 80.7063 333.64 80.5465 333.399C80.3867 333.154 80.1701 332.962 79.8967 332.824C79.6232 332.682 79.3089 332.611 78.9538 332.611C78.6023 332.611 78.288 332.682 78.011 332.824C77.734 332.962 77.5156 333.154 77.3558 333.399C77.1996 333.64 77.1214 333.919 77.1214 334.235C77.1214 334.544 77.1978 334.818 77.3505 335.056C77.5032 335.29 77.718 335.475 77.995 335.609C78.272 335.741 78.5916 335.807 78.9538 335.807ZM78.9538 330.933C79.2592 330.933 79.5309 330.87 79.7688 330.746C80.0067 330.622 80.1932 330.45 80.3281 330.23C80.4631 330.009 80.5305 329.755 80.5305 329.468C80.5305 329.184 80.4631 328.935 80.3281 328.722C80.1932 328.505 80.0085 328.337 79.7741 328.216C79.5398 328.092 79.2663 328.03 78.9538 328.03C78.6449 328.03 78.3714 328.092 78.1335 328.216C77.8956 328.337 77.7092 328.505 77.5742 328.722C77.4428 328.935 77.3771 329.184 77.3771 329.468C77.3771 329.755 77.4446 330.009 77.5795 330.23C77.7145 330.45 77.9009 330.622 78.1388 330.746C78.3768 330.87 78.6484 330.933 78.9538 330.933ZM84.8012 337.351V335.689L88.6844 332.094C89.0146 331.774 89.2916 331.487 89.5154 331.231C89.7426 330.975 89.9149 330.725 90.032 330.48C90.1492 330.231 90.2078 329.963 90.2078 329.676C90.2078 329.356 90.135 329.081 89.9894 328.85C89.8438 328.616 89.645 328.436 89.3928 328.312C89.1407 328.184 88.8548 328.12 88.5352 328.12C88.2014 328.12 87.9102 328.188 87.6617 328.323C87.4131 328.457 87.2213 328.651 87.0864 328.903C86.9514 329.155 86.884 329.455 86.884 329.803H84.6947C84.6947 329.09 84.8563 328.47 85.1794 327.944C85.5026 327.419 85.9553 327.012 86.5377 326.725C87.1201 326.437 87.7913 326.293 88.5512 326.293C89.3325 326.293 90.0125 326.432 90.5914 326.709C91.1737 326.982 91.6265 327.362 91.9497 327.848C92.2728 328.335 92.4344 328.893 92.4344 329.521C92.4344 329.933 92.3527 330.34 92.1894 330.741C92.0296 331.142 91.7437 331.588 91.3318 332.078C90.9198 332.564 90.3392 333.149 89.5899 333.83L87.9972 335.391V335.466H92.5782V337.351H84.8012ZM98.4363 337.5C97.8752 337.497 97.3336 337.403 96.8116 337.218C96.2931 337.033 95.8279 336.733 95.416 336.318C95.0041 335.902 94.6774 335.352 94.4359 334.667C94.198 333.981 94.079 333.14 94.079 332.142C94.0826 331.226 94.1873 330.407 94.3933 329.686C94.6028 328.962 94.9011 328.347 95.2882 327.843C95.6788 327.339 96.1458 326.955 96.6891 326.693C97.2324 326.426 97.8414 326.293 98.5162 326.293C99.2441 326.293 99.8869 326.435 100.444 326.719C101.002 327 101.449 327.382 101.787 327.864C102.128 328.347 102.334 328.889 102.405 329.489H100.13C100.041 329.109 99.8549 328.811 99.5708 328.594C99.2868 328.378 98.9352 328.269 98.5162 328.269C97.8059 328.269 97.2662 328.578 96.8968 329.196C96.5311 329.814 96.3446 330.654 96.3375 331.716H96.4121C96.5755 331.393 96.7956 331.117 97.0726 330.89C97.3532 330.659 97.671 330.483 98.0261 330.363C98.3848 330.238 98.763 330.176 99.1607 330.176C99.807 330.176 100.382 330.329 100.887 330.634C101.391 330.936 101.789 331.352 102.08 331.881C102.371 332.41 102.517 333.015 102.517 333.697C102.517 334.436 102.344 335.093 102 335.668C101.659 336.243 101.181 336.694 100.567 337.021C99.9561 337.344 99.2459 337.504 98.4363 337.5ZM98.4256 335.689C98.7807 335.689 99.0985 335.604 99.3791 335.434C99.6596 335.263 99.8798 335.032 100.04 334.741C100.199 334.45 100.279 334.123 100.279 333.761C100.279 333.399 100.199 333.074 100.04 332.786C99.8833 332.499 99.6667 332.27 99.3897 332.099C99.1127 331.929 98.7967 331.844 98.4416 331.844C98.1752 331.844 97.9284 331.893 97.7012 331.993C97.4775 332.092 97.2804 332.231 97.1099 332.408C96.943 332.586 96.8116 332.792 96.7157 333.026C96.6199 333.257 96.5719 333.504 96.5719 333.766C96.5719 334.118 96.6518 334.439 96.8116 334.731C96.975 335.022 97.1951 335.254 97.4721 335.428C97.7527 335.602 98.0705 335.689 98.4256 335.689Z" fill="#101044"/>
<path d="M77.1367 354.964V349.682H78.1875V354.964H77.1367ZM75.0234 352.846V351.799H80.3047V352.846H75.0234ZM81.7734 356.307V355.432L84.4805 352.628C84.7695 352.323 85.0078 352.056 85.1953 351.827C85.3854 351.595 85.5273 351.375 85.6211 351.167C85.7148 350.958 85.7617 350.737 85.7617 350.503C85.7617 350.237 85.6992 350.008 85.5742 349.815C85.4492 349.62 85.2786 349.47 85.0625 349.366C84.8464 349.259 84.6029 349.206 84.332 349.206C84.0456 349.206 83.7956 349.264 83.582 349.381C83.3685 349.499 83.2044 349.664 83.0898 349.878C82.9753 350.091 82.918 350.341 82.918 350.628H81.7656C81.7656 350.141 81.8776 349.715 82.1016 349.35C82.3255 348.986 82.6328 348.703 83.0234 348.503C83.4141 348.299 83.8581 348.198 84.3555 348.198C84.8581 348.198 85.3008 348.298 85.6836 348.499C86.069 348.697 86.3698 348.967 86.5859 349.311C86.8021 349.652 86.9102 350.038 86.9102 350.467C86.9102 350.764 86.8542 351.055 86.7422 351.339C86.6328 351.622 86.4414 351.939 86.168 352.288C85.8945 352.634 85.5143 353.055 85.0273 353.549L83.4375 355.214V355.272H87.0391V356.307H81.7734ZM89.3047 356.381C89.0911 356.381 88.9076 356.306 88.7539 356.155C88.6003 356.001 88.5234 355.816 88.5234 355.6C88.5234 355.387 88.6003 355.204 88.7539 355.053C88.9076 354.9 89.0911 354.823 89.3047 354.823C89.5182 354.823 89.7018 354.9 89.8555 355.053C90.0091 355.204 90.0859 355.387 90.0859 355.6C90.0859 355.743 90.0495 355.875 89.9766 355.995C89.9063 356.112 89.8125 356.206 89.6953 356.276C89.5781 356.346 89.4479 356.381 89.3047 356.381ZM94.1465 356.417C93.6569 356.417 93.2168 356.323 92.8262 356.135C92.4382 355.945 92.1283 355.685 91.8965 355.354C91.6647 355.023 91.541 354.646 91.5254 354.221H92.6973C92.7259 354.565 92.8783 354.848 93.1543 355.069C93.4303 355.29 93.7611 355.401 94.1465 355.401C94.4538 355.401 94.7259 355.331 94.9629 355.19C95.2025 355.047 95.39 354.85 95.5254 354.6C95.6634 354.35 95.7324 354.065 95.7324 353.745C95.7324 353.419 95.6621 353.129 95.5215 352.874C95.3809 352.618 95.1868 352.418 94.9395 352.272C94.6947 352.126 94.4134 352.052 94.0957 352.049C93.8535 352.049 93.61 352.091 93.3652 352.174C93.1204 352.258 92.9225 352.367 92.7715 352.503L91.666 352.339L92.1152 348.307H96.5137V349.342H93.1191L92.8652 351.581H92.9121C93.0684 351.43 93.2754 351.303 93.5332 351.202C93.7936 351.1 94.0723 351.049 94.3691 351.049C94.8561 351.049 95.2897 351.165 95.6699 351.397C96.0527 351.629 96.3535 351.945 96.5723 352.346C96.7936 352.745 96.903 353.203 96.9004 353.721C96.903 354.24 96.7858 354.702 96.5488 355.108C96.3145 355.514 95.9889 355.835 95.5723 356.069C95.1582 356.301 94.6829 356.417 94.1465 356.417ZM102.503 354.807V354.385C102.503 354.083 102.565 353.807 102.69 353.557C102.818 353.305 103.003 353.103 103.245 352.952C103.49 352.798 103.785 352.721 104.132 352.721C104.486 352.721 104.783 352.797 105.022 352.948C105.262 353.099 105.443 353.301 105.565 353.553C105.69 353.806 105.753 354.083 105.753 354.385V354.807C105.753 355.109 105.69 355.387 105.565 355.639C105.44 355.889 105.257 356.091 105.015 356.245C104.775 356.396 104.481 356.471 104.132 356.471C103.78 356.471 103.483 356.396 103.241 356.245C102.999 356.091 102.815 355.889 102.69 355.639C102.565 355.387 102.503 355.109 102.503 354.807ZM103.413 354.385V354.807C103.413 355.031 103.466 355.234 103.573 355.417C103.68 355.599 103.866 355.69 104.132 355.69C104.395 355.69 104.578 355.599 104.683 355.417C104.787 355.234 104.839 355.031 104.839 354.807V354.385C104.839 354.161 104.788 353.958 104.687 353.776C104.588 353.594 104.403 353.503 104.132 353.503C103.871 353.503 103.687 353.594 103.577 353.776C103.468 353.958 103.413 354.161 103.413 354.385ZM98.4795 350.229V349.807C98.4795 349.505 98.542 349.228 98.667 348.975C98.7946 348.723 98.9795 348.521 99.2217 348.37C99.4665 348.219 99.762 348.143 100.108 348.143C100.463 348.143 100.759 348.219 100.999 348.37C101.239 348.521 101.42 348.723 101.542 348.975C101.664 349.228 101.726 349.505 101.726 349.807V350.229C101.726 350.531 101.663 350.809 101.538 351.061C101.416 351.311 101.233 351.513 100.991 351.667C100.752 351.818 100.457 351.893 100.108 351.893C99.7542 351.893 99.4561 351.818 99.2139 351.667C98.9743 351.513 98.792 351.311 98.667 351.061C98.542 350.809 98.4795 350.531 98.4795 350.229ZM99.3936 349.807V350.229C99.3936 350.453 99.4456 350.656 99.5498 350.839C99.6566 351.021 99.8428 351.112 100.108 351.112C100.369 351.112 100.551 351.021 100.655 350.839C100.762 350.656 100.815 350.453 100.815 350.229V349.807C100.815 349.583 100.765 349.38 100.663 349.198C100.562 349.016 100.377 348.924 100.108 348.924C99.848 348.924 99.6631 349.016 99.5537 349.198C99.4469 349.38 99.3936 349.583 99.3936 349.807ZM98.8506 356.307L104.351 348.307H105.284L99.7842 356.307H98.8506Z" fill="#17BD8D"/>
<path d="M116.035 350.083L113 347.054L109.965 350.083" stroke="#17BD8D" stroke-width="1.5" stroke-miterlimit="10" stroke-linecap="round" stroke-linejoin="round"/>
<path d="M113 355.537V347.139" stroke="#17BD8D" stroke-width="1.5" stroke-miterlimit="10" stroke-linecap="round" stroke-linejoin="round"/>
<g filter="url(#filter1_d_11234_28038)">
<rect x="270" y="73.8518" width="180" height="84.8298" rx="10" fill="white"/>
</g>
<rect x="428" y="118.762" width="8" height="25.9479" fill="#2161E0"/>
<rect x="417" y="118.762" width="8" height="25.9479" fill="#E7EFFF"/>
<rect x="406" y="124.75" width="8" height="19.96" fill="#E7EFFF"/>
<rect x="395" y="110.778" width="8" height="33.9319" fill="#E7EFFF"/>
<rect x="384" y="121.756" width="8" height="22.9539" fill="#E7EFFF"/>
<rect x="373" y="126.746" width="8" height="17.964" fill="#E7EFFF"/>
<rect x="362" y="140.718" width="8" height="3.99199" fill="#E7EFFF"/>
<path d="M285.555 98.8237H284.273L287.152 90.8237H288.547L291.426 98.8237H290.145L287.883 92.2769H287.82L285.555 98.8237ZM285.77 95.6909H289.926V96.7065H285.77V95.6909ZM292.442 90.8237L294.669 97.3394H294.759L296.985 90.8237H298.29L295.411 98.8237H294.017L291.138 90.8237H292.442ZM304.462 93.3511C304.386 93.1141 304.285 92.9019 304.157 92.7144C304.032 92.5243 303.882 92.3628 303.708 92.23C303.534 92.0946 303.334 91.9917 303.11 91.9214C302.889 91.8511 302.646 91.8159 302.38 91.8159C301.929 91.8159 301.523 91.9318 301.161 92.1636C300.799 92.3953 300.513 92.7352 300.302 93.1831C300.093 93.6284 299.989 94.174 299.989 94.8198C299.989 95.4683 300.095 96.0164 300.306 96.4644C300.517 96.9123 300.806 97.2521 301.173 97.4839C301.54 97.7157 301.958 97.8315 302.427 97.8315C302.862 97.8315 303.241 97.743 303.563 97.5659C303.889 97.3888 304.14 97.1388 304.317 96.8159C304.497 96.4904 304.587 96.1076 304.587 95.6675L304.899 95.7261H302.61V94.73H305.755V95.6401C305.755 96.312 305.612 96.8953 305.325 97.3901C305.041 97.8823 304.648 98.2625 304.146 98.5308C303.646 98.799 303.073 98.9331 302.427 98.9331C301.703 98.9331 301.067 98.7664 300.521 98.4331C299.976 98.0998 299.552 97.6271 299.247 97.0151C298.942 96.4006 298.79 95.6714 298.79 94.8276C298.79 94.1896 298.879 93.6167 299.056 93.1089C299.233 92.6011 299.481 92.1701 299.802 91.8159C300.125 91.4591 300.504 91.187 300.938 90.9995C301.376 90.8094 301.854 90.7144 302.372 90.7144C302.804 90.7144 303.207 90.7782 303.579 90.9058C303.954 91.0334 304.287 91.2144 304.579 91.4487C304.873 91.6831 305.117 91.9618 305.31 92.2847C305.502 92.605 305.632 92.9604 305.7 93.3511H304.462ZM310.198 98.8237V90.8237H315.214V91.8628H311.405V94.3003H314.952V95.3354H311.405V97.7847H315.261V98.8237H310.198ZM317.9 95.2612V98.8237H316.732V92.8237H317.854V93.8003H317.928C318.066 93.4826 318.282 93.2274 318.576 93.0347C318.873 92.842 319.247 92.7456 319.697 92.7456C320.106 92.7456 320.464 92.8315 320.771 93.0034C321.079 93.1727 321.317 93.4253 321.486 93.7612C321.656 94.0972 321.74 94.5125 321.74 95.0073V98.8237H320.572V95.1479C320.572 94.7131 320.459 94.3732 320.232 94.1284C320.006 93.881 319.695 93.7573 319.299 93.7573C319.028 93.7573 318.787 93.8159 318.576 93.9331C318.368 94.0503 318.202 94.2222 318.08 94.4487C317.96 94.6727 317.9 94.9435 317.9 95.2612ZM325.822 101.199C325.346 101.199 324.936 101.136 324.592 101.011C324.251 100.886 323.972 100.721 323.756 100.515C323.54 100.309 323.378 100.084 323.271 99.8394L324.275 99.4253C324.346 99.5399 324.439 99.661 324.557 99.7886C324.676 99.9188 324.838 100.029 325.041 100.121C325.247 100.212 325.511 100.257 325.834 100.257C326.277 100.257 326.643 100.149 326.932 99.9331C327.221 99.7196 327.365 99.3784 327.365 98.9097V97.73H327.291C327.221 97.8576 327.119 97.9995 326.986 98.1558C326.856 98.312 326.676 98.4474 326.447 98.562C326.218 98.6766 325.92 98.7339 325.553 98.7339C325.079 98.7339 324.652 98.6232 324.271 98.4019C323.894 98.1779 323.594 97.8485 323.373 97.4136C323.154 96.9761 323.045 96.4383 323.045 95.8003C323.045 95.1623 323.153 94.6154 323.369 94.1597C323.588 93.7039 323.887 93.355 324.268 93.1128C324.648 92.868 325.079 92.7456 325.561 92.7456C325.933 92.7456 326.234 92.8081 326.463 92.9331C326.692 93.0555 326.87 93.1987 326.998 93.3628C327.128 93.5269 327.229 93.6714 327.299 93.7964H327.385V92.8237H328.529V98.9565C328.529 99.4722 328.41 99.8953 328.17 100.226C327.93 100.557 327.606 100.802 327.197 100.96C326.791 101.119 326.333 101.199 325.822 101.199ZM325.811 97.7651C326.146 97.7651 326.43 97.687 326.662 97.5308C326.896 97.3719 327.074 97.1453 327.193 96.8511C327.316 96.5542 327.377 96.1987 327.377 95.7847C327.377 95.381 327.317 95.0256 327.197 94.7183C327.077 94.411 326.902 94.1714 326.67 93.9995C326.438 93.825 326.152 93.7378 325.811 93.7378C325.459 93.7378 325.166 93.8289 324.932 94.0112C324.697 94.1909 324.52 94.4357 324.4 94.7456C324.283 95.0555 324.225 95.4019 324.225 95.7847C324.225 96.1779 324.285 96.5229 324.404 96.8198C324.524 97.1167 324.701 97.3485 324.936 97.5151C325.173 97.6818 325.464 97.7651 325.811 97.7651ZM331.842 98.9565C331.462 98.9565 331.118 98.8862 330.811 98.7456C330.503 98.6024 330.26 98.3953 330.08 98.1245C329.903 97.8537 329.814 97.5216 329.814 97.1284C329.814 96.7899 329.88 96.5112 330.01 96.2925C330.14 96.0737 330.316 95.9006 330.537 95.7729C330.758 95.6453 331.006 95.549 331.279 95.4839C331.553 95.4188 331.831 95.3693 332.115 95.3354C332.475 95.2938 332.766 95.2599 332.99 95.2339C333.214 95.2052 333.377 95.1597 333.479 95.0972C333.58 95.0347 333.631 94.9331 333.631 94.7925V94.7651C333.631 94.424 333.535 94.1597 333.342 93.9722C333.152 93.7847 332.868 93.6909 332.49 93.6909C332.097 93.6909 331.787 93.7782 331.561 93.9526C331.337 94.1245 331.182 94.3159 331.096 94.5269L329.998 94.2769C330.128 93.9123 330.318 93.618 330.568 93.394C330.821 93.1675 331.111 93.0034 331.439 92.9019C331.768 92.7977 332.113 92.7456 332.475 92.7456C332.714 92.7456 332.968 92.7743 333.236 92.8315C333.507 92.8862 333.76 92.9878 333.994 93.1362C334.231 93.2847 334.425 93.4969 334.576 93.7729C334.727 94.0464 334.803 94.4019 334.803 94.8394V98.8237H333.662V98.0034H333.615C333.54 98.1545 333.426 98.3029 333.275 98.4487C333.124 98.5946 332.93 98.7157 332.693 98.812C332.456 98.9084 332.173 98.9565 331.842 98.9565ZM332.096 98.019C332.419 98.019 332.695 97.9552 332.924 97.8276C333.156 97.7 333.331 97.5334 333.451 97.3276C333.574 97.1193 333.635 96.8966 333.635 96.6597V95.8862C333.593 95.9279 333.512 95.967 333.393 96.0034C333.275 96.0373 333.141 96.0672 332.99 96.0933C332.839 96.1167 332.692 96.1388 332.549 96.1597C332.406 96.1779 332.286 96.1935 332.189 96.2065C331.963 96.2352 331.756 96.2834 331.568 96.3511C331.383 96.4188 331.235 96.5164 331.123 96.644C331.014 96.769 330.959 96.9357 330.959 97.144C330.959 97.4331 331.066 97.6519 331.279 97.8003C331.493 97.9461 331.765 98.019 332.096 98.019ZM338.874 101.199C338.397 101.199 337.987 101.136 337.644 101.011C337.302 100.886 337.024 100.721 336.808 100.515C336.591 100.309 336.43 100.084 336.323 99.8394L337.327 99.4253C337.397 99.5399 337.491 99.661 337.608 99.7886C337.728 99.9188 337.89 100.029 338.093 100.121C338.299 100.212 338.563 100.257 338.886 100.257C339.328 100.257 339.694 100.149 339.983 99.9331C340.272 99.7196 340.417 99.3784 340.417 98.9097V97.73H340.343C340.272 97.8576 340.171 97.9995 340.038 98.1558C339.908 98.312 339.728 98.4474 339.499 98.562C339.27 98.6766 338.972 98.7339 338.604 98.7339C338.131 98.7339 337.703 98.6232 337.323 98.4019C336.946 98.1779 336.646 97.8485 336.425 97.4136C336.206 96.9761 336.097 96.4383 336.097 95.8003C336.097 95.1623 336.205 94.6154 336.421 94.1597C336.64 93.7039 336.939 93.355 337.319 93.1128C337.7 92.868 338.131 92.7456 338.612 92.7456C338.985 92.7456 339.285 92.8081 339.515 92.9331C339.744 93.0555 339.922 93.1987 340.05 93.3628C340.18 93.5269 340.28 93.6714 340.351 93.7964H340.437V92.8237H341.581V98.9565C341.581 99.4722 341.461 99.8953 341.222 100.226C340.982 100.557 340.658 100.802 340.249 100.96C339.843 101.119 339.384 101.199 338.874 101.199ZM338.862 97.7651C339.198 97.7651 339.482 97.687 339.714 97.5308C339.948 97.3719 340.125 97.1453 340.245 96.8511C340.368 96.5542 340.429 96.1987 340.429 95.7847C340.429 95.381 340.369 95.0256 340.249 94.7183C340.129 94.411 339.953 94.1714 339.722 93.9995C339.49 93.825 339.203 93.7378 338.862 93.7378C338.511 93.7378 338.218 93.8289 337.983 94.0112C337.749 94.1909 337.572 94.4357 337.452 94.7456C337.335 95.0555 337.276 95.4019 337.276 95.7847C337.276 96.1779 337.336 96.5229 337.456 96.8198C337.576 97.1167 337.753 97.3485 337.987 97.5151C338.224 97.6818 338.516 97.7651 338.862 97.7651ZM345.733 98.9448C345.142 98.9448 344.633 98.8185 344.206 98.5659C343.782 98.3107 343.453 97.9526 343.222 97.4917C342.993 97.0282 342.878 96.4852 342.878 95.8628C342.878 95.2482 342.993 94.7065 343.222 94.2378C343.453 93.769 343.776 93.4032 344.19 93.1401C344.607 92.8771 345.094 92.7456 345.651 92.7456C345.99 92.7456 346.318 92.8016 346.636 92.9136C346.953 93.0256 347.239 93.2013 347.491 93.4409C347.744 93.6805 347.943 93.9917 348.089 94.3745C348.235 94.7547 348.308 95.217 348.308 95.7612V96.1753H343.538V95.3003H347.163C347.163 94.993 347.101 94.7209 346.976 94.4839C346.851 94.2443 346.675 94.0555 346.448 93.9175C346.224 93.7795 345.961 93.7104 345.659 93.7104C345.331 93.7104 345.045 93.7912 344.8 93.9526C344.558 94.1115 344.37 94.3198 344.237 94.5776C344.107 94.8328 344.042 95.1102 344.042 95.4097V96.0933C344.042 96.4943 344.112 96.8354 344.253 97.1167C344.396 97.3979 344.595 97.6128 344.851 97.7612C345.106 97.9071 345.404 97.98 345.745 97.98C345.966 97.98 346.168 97.9487 346.351 97.8862C346.533 97.8211 346.69 97.7248 346.823 97.5972C346.956 97.4696 347.058 97.312 347.128 97.1245L348.233 97.3237C348.145 97.6493 347.986 97.9344 347.757 98.1792C347.53 98.4214 347.245 98.6102 346.901 98.7456C346.56 98.8784 346.171 98.9448 345.733 98.9448ZM349.604 98.8237V92.8237H350.725V93.8003H350.799C350.924 93.4696 351.128 93.2118 351.412 93.0269C351.696 92.8394 352.036 92.7456 352.432 92.7456C352.833 92.7456 353.169 92.8394 353.439 93.0269C353.713 93.2144 353.915 93.4722 354.045 93.8003H354.107C354.251 93.48 354.479 93.2248 354.791 93.0347C355.104 92.842 355.476 92.7456 355.908 92.7456C356.452 92.7456 356.896 92.9162 357.24 93.2573C357.587 93.5985 357.76 94.1128 357.76 94.8003V98.8237H356.592V94.9097C356.592 94.5034 356.481 94.2091 356.26 94.0269C356.038 93.8446 355.774 93.7534 355.467 93.7534C355.087 93.7534 354.791 93.8706 354.58 94.105C354.369 94.3368 354.264 94.6349 354.264 94.9995V98.8237H353.1V94.8354C353.1 94.5099 352.998 94.2482 352.795 94.0503C352.592 93.8524 352.327 93.7534 352.002 93.7534C351.781 93.7534 351.576 93.812 351.389 93.9292C351.204 94.0438 351.054 94.2039 350.939 94.4097C350.827 94.6154 350.771 94.8537 350.771 95.1245V98.8237H349.604ZM361.911 98.9448C361.32 98.9448 360.811 98.8185 360.384 98.5659C359.959 98.3107 359.631 97.9526 359.399 97.4917C359.17 97.0282 359.056 96.4852 359.056 95.8628C359.056 95.2482 359.17 94.7065 359.399 94.2378C359.631 93.769 359.954 93.4032 360.368 93.1401C360.785 92.8771 361.272 92.7456 361.829 92.7456C362.168 92.7456 362.496 92.8016 362.813 92.9136C363.131 93.0256 363.416 93.2013 363.669 93.4409C363.922 93.6805 364.121 93.9917 364.267 94.3745C364.412 94.7547 364.485 95.217 364.485 95.7612V96.1753H359.716V95.3003H363.341C363.341 94.993 363.278 94.7209 363.153 94.4839C363.028 94.2443 362.853 94.0555 362.626 93.9175C362.402 93.7795 362.139 93.7104 361.837 93.7104C361.509 93.7104 361.222 93.7912 360.978 93.9526C360.735 94.1115 360.548 94.3198 360.415 94.5776C360.285 94.8328 360.22 95.1102 360.22 95.4097V96.0933C360.22 96.4943 360.29 96.8354 360.431 97.1167C360.574 97.3979 360.773 97.6128 361.028 97.7612C361.284 97.9071 361.582 97.98 361.923 97.98C362.144 97.98 362.346 97.9487 362.528 97.8862C362.711 97.8211 362.868 97.7248 363.001 97.5972C363.134 97.4696 363.235 97.312 363.306 97.1245L364.411 97.3237C364.323 97.6493 364.164 97.9344 363.935 98.1792C363.708 98.4214 363.423 98.6102 363.079 98.7456C362.738 98.8784 362.349 98.9448 361.911 98.9448ZM366.949 95.2612V98.8237H365.781V92.8237H366.902V93.8003H366.977C367.115 93.4826 367.331 93.2274 367.625 93.0347C367.922 92.842 368.296 92.7456 368.746 92.7456C369.155 92.7456 369.513 92.8315 369.82 93.0034C370.128 93.1727 370.366 93.4253 370.535 93.7612C370.704 94.0972 370.789 94.5125 370.789 95.0073V98.8237H369.621V95.1479C369.621 94.7131 369.508 94.3732 369.281 94.1284C369.055 93.881 368.743 93.7573 368.348 93.7573C368.077 93.7573 367.836 93.8159 367.625 93.9331C367.417 94.0503 367.251 94.2222 367.129 94.4487C367.009 94.6727 366.949 94.9435 366.949 95.2612ZM375.156 92.8237V93.7612H371.879V92.8237H375.156ZM372.758 91.3862H373.926V97.062C373.926 97.2886 373.96 97.4591 374.027 97.5737C374.095 97.6857 374.182 97.7625 374.289 97.8042C374.398 97.8433 374.517 97.8628 374.645 97.8628C374.738 97.8628 374.82 97.8563 374.891 97.8433C374.961 97.8302 375.016 97.8198 375.055 97.812L375.266 98.7769C375.198 98.8029 375.102 98.8289 374.977 98.855C374.852 98.8836 374.695 98.8993 374.508 98.9019C374.201 98.9071 373.914 98.8524 373.648 98.7378C373.383 98.6232 373.168 98.4461 373.004 98.2065C372.84 97.967 372.758 97.6662 372.758 97.3042V91.3862ZM380.848 94.2886L379.789 94.4761C379.745 94.3407 379.674 94.2118 379.578 94.0894C379.484 93.967 379.357 93.8667 379.195 93.7886C379.034 93.7104 378.832 93.6714 378.59 93.6714C378.259 93.6714 377.983 93.7456 377.762 93.894C377.54 94.0399 377.43 94.2287 377.43 94.4604C377.43 94.661 377.504 94.8224 377.652 94.9448C377.801 95.0672 378.04 95.1675 378.371 95.2456L379.324 95.4644C379.876 95.592 380.288 95.7886 380.559 96.0542C380.829 96.3198 380.965 96.6649 380.965 97.0894C380.965 97.4487 380.861 97.769 380.652 98.0503C380.447 98.3289 380.159 98.5477 379.789 98.7065C379.422 98.8654 378.996 98.9448 378.512 98.9448C377.84 98.9448 377.292 98.8016 376.867 98.5151C376.443 98.2261 376.182 97.8159 376.086 97.2847L377.215 97.1128C377.285 97.4071 377.43 97.6297 377.648 97.7808C377.867 97.9292 378.152 98.0034 378.504 98.0034C378.887 98.0034 379.193 97.924 379.422 97.7651C379.651 97.6037 379.766 97.4071 379.766 97.1753C379.766 96.9878 379.695 96.8302 379.555 96.7026C379.417 96.575 379.204 96.4787 378.918 96.4136L377.902 96.1909C377.342 96.0633 376.928 95.8602 376.66 95.5815C376.395 95.3029 376.262 94.95 376.262 94.5229C376.262 94.1688 376.361 93.8589 376.559 93.5933C376.757 93.3276 377.03 93.1206 377.379 92.9722C377.728 92.8211 378.128 92.7456 378.578 92.7456C379.227 92.7456 379.737 92.8862 380.109 93.1675C380.482 93.4461 380.728 93.8198 380.848 94.2886ZM385.254 98.8237V90.8237H388.105C388.725 90.8237 389.24 90.9305 389.648 91.144C390.06 91.3576 390.367 91.6532 390.57 92.0308C390.773 92.4058 390.875 92.8394 390.875 93.3315C390.875 93.8211 390.772 94.2521 390.566 94.6245C390.363 94.9943 390.056 95.2821 389.645 95.4878C389.236 95.6935 388.721 95.7964 388.102 95.7964H385.941V94.7573H387.992C388.383 94.7573 388.701 94.7013 388.945 94.5894C389.193 94.4774 389.374 94.3146 389.488 94.1011C389.603 93.8875 389.66 93.631 389.66 93.3315C389.66 93.0295 389.602 92.7677 389.484 92.5464C389.37 92.325 389.189 92.1558 388.941 92.0386C388.697 91.9188 388.375 91.8589 387.977 91.8589H386.461V98.8237H385.254ZM389.203 95.2144L391.18 98.8237H389.805L387.867 95.2144H389.203ZM393.996 98.9565C393.616 98.9565 393.272 98.8862 392.965 98.7456C392.658 98.6024 392.414 98.3953 392.234 98.1245C392.057 97.8537 391.969 97.5216 391.969 97.1284C391.969 96.7899 392.034 96.5112 392.164 96.2925C392.294 96.0737 392.47 95.9006 392.691 95.7729C392.913 95.6453 393.16 95.549 393.434 95.4839C393.707 95.4188 393.986 95.3693 394.27 95.3354C394.629 95.2938 394.921 95.2599 395.145 95.2339C395.368 95.2052 395.531 95.1597 395.633 95.0972C395.734 95.0347 395.785 94.9331 395.785 94.7925V94.7651C395.785 94.424 395.689 94.1597 395.496 93.9722C395.306 93.7847 395.022 93.6909 394.645 93.6909C394.251 93.6909 393.941 93.7782 393.715 93.9526C393.491 94.1245 393.336 94.3159 393.25 94.5269L392.152 94.2769C392.283 93.9123 392.473 93.618 392.723 93.394C392.975 93.1675 393.266 93.0034 393.594 92.9019C393.922 92.7977 394.267 92.7456 394.629 92.7456C394.868 92.7456 395.122 92.7743 395.391 92.8315C395.661 92.8862 395.914 92.9878 396.148 93.1362C396.385 93.2847 396.579 93.4969 396.73 93.7729C396.882 94.0464 396.957 94.4019 396.957 94.8394V98.8237H395.816V98.0034H395.77C395.694 98.1545 395.581 98.3029 395.43 98.4487C395.279 98.5946 395.085 98.7157 394.848 98.812C394.611 98.9084 394.327 98.9565 393.996 98.9565ZM394.25 98.019C394.573 98.019 394.849 97.9552 395.078 97.8276C395.31 97.7 395.486 97.5334 395.605 97.3276C395.728 97.1193 395.789 96.8966 395.789 96.6597V95.8862C395.747 95.9279 395.667 95.967 395.547 96.0034C395.43 96.0373 395.296 96.0672 395.145 96.0933C394.993 96.1167 394.846 96.1388 394.703 96.1597C394.56 96.1779 394.44 96.1935 394.344 96.2065C394.117 96.2352 393.91 96.2834 393.723 96.3511C393.538 96.4188 393.389 96.5164 393.277 96.644C393.168 96.769 393.113 96.9357 393.113 97.144C393.113 97.4331 393.22 97.6519 393.434 97.8003C393.647 97.9461 393.919 98.019 394.25 98.019ZM401.313 92.8237V93.7612H398.036V92.8237H401.313ZM398.915 91.3862H400.083V97.062C400.083 97.2886 400.117 97.4591 400.185 97.5737C400.252 97.6857 400.34 97.7625 400.446 97.8042C400.556 97.8433 400.674 97.8628 400.802 97.8628C400.896 97.8628 400.978 97.8563 401.048 97.8433C401.118 97.8302 401.173 97.8198 401.212 97.812L401.423 98.7769C401.355 98.8029 401.259 98.8289 401.134 98.855C401.009 98.8836 400.853 98.8993 400.665 98.9019C400.358 98.9071 400.071 98.8524 399.806 98.7378C399.54 98.6232 399.325 98.4461 399.161 98.2065C398.997 97.967 398.915 97.6662 398.915 97.3042V91.3862ZM405.127 98.9448C404.536 98.9448 404.027 98.8185 403.6 98.5659C403.175 98.3107 402.847 97.9526 402.615 97.4917C402.386 97.0282 402.271 96.4852 402.271 95.8628C402.271 95.2482 402.386 94.7065 402.615 94.2378C402.847 93.769 403.17 93.4032 403.584 93.1401C404.001 92.8771 404.488 92.7456 405.045 92.7456C405.383 92.7456 405.712 92.8016 406.029 92.9136C406.347 93.0256 406.632 93.2013 406.885 93.4409C407.137 93.6805 407.337 93.9917 407.482 94.3745C407.628 94.7547 407.701 95.217 407.701 95.7612V96.1753H402.932V95.3003H406.557C406.557 94.993 406.494 94.7209 406.369 94.4839C406.244 94.2443 406.068 94.0555 405.842 93.9175C405.618 93.7795 405.355 93.7104 405.053 93.7104C404.725 93.7104 404.438 93.7912 404.193 93.9526C403.951 94.1115 403.764 94.3198 403.631 94.5776C403.501 94.8328 403.436 95.1102 403.436 95.4097V96.0933C403.436 96.4943 403.506 96.8354 403.646 97.1167C403.79 97.3979 403.989 97.6128 404.244 97.7612C404.499 97.9071 404.798 97.98 405.139 97.98C405.36 97.98 405.562 97.9487 405.744 97.8862C405.926 97.8211 406.084 97.7248 406.217 97.5972C406.35 97.4696 406.451 97.312 406.521 97.1245L407.627 97.3237C407.538 97.6493 407.38 97.9344 407.15 98.1792C406.924 98.4214 406.639 98.6102 406.295 98.7456C405.954 98.8784 405.564 98.9448 405.127 98.9448Z" fill="#54547A"/>
<path d="M288.954 121.933C288.134 121.933 287.404 121.8 286.765 121.533C286.129 121.263 285.63 120.896 285.268 120.431C284.906 119.966 284.724 119.438 284.724 118.849C284.724 118.394 284.827 117.977 285.033 117.597C285.243 117.213 285.527 116.896 285.886 116.643C286.244 116.388 286.646 116.224 287.089 116.153V116.079C286.507 115.962 286.035 115.679 285.673 115.232C285.31 114.781 285.129 114.257 285.129 113.66C285.129 113.096 285.294 112.593 285.625 112.153C285.955 111.709 286.408 111.361 286.983 111.109C287.562 110.853 288.219 110.725 288.954 110.725C289.689 110.725 290.344 110.853 290.919 111.109C291.498 111.365 291.953 111.714 292.283 112.158C292.613 112.599 292.78 113.099 292.784 113.66C292.78 114.261 292.596 114.784 292.23 115.232C291.864 115.679 291.395 115.962 290.824 116.079V116.153C291.26 116.224 291.656 116.388 292.011 116.643C292.37 116.896 292.654 117.213 292.864 117.597C293.077 117.977 293.185 118.394 293.189 118.849C293.185 119.438 293.002 119.966 292.64 120.431C292.278 120.896 291.777 121.263 291.138 121.533C290.502 121.8 289.774 121.933 288.954 121.933ZM288.954 120.239C289.32 120.239 289.639 120.173 289.913 120.042C290.186 119.907 290.399 119.722 290.552 119.488C290.708 119.25 290.786 118.977 290.786 118.668C290.786 118.352 290.706 118.073 290.547 117.831C290.387 117.586 290.17 117.394 289.897 117.256C289.623 117.114 289.309 117.043 288.954 117.043C288.602 117.043 288.288 117.114 288.011 117.256C287.734 117.394 287.516 117.586 287.356 117.831C287.2 118.073 287.121 118.352 287.121 118.668C287.121 118.977 287.198 119.25 287.35 119.488C287.503 119.722 287.718 119.907 287.995 120.042C288.272 120.173 288.592 120.239 288.954 120.239ZM288.954 115.365C289.259 115.365 289.531 115.303 289.769 115.179C290.007 115.054 290.193 114.882 290.328 114.662C290.463 114.442 290.531 114.188 290.531 113.9C290.531 113.616 290.463 113.367 290.328 113.154C290.193 112.938 290.009 112.769 289.774 112.648C289.54 112.524 289.266 112.462 288.954 112.462C288.645 112.462 288.371 112.524 288.134 112.648C287.896 112.769 287.709 112.938 287.574 113.154C287.443 113.367 287.377 113.616 287.377 113.9C287.377 114.188 287.445 114.442 287.58 114.662C287.714 114.882 287.901 115.054 288.139 115.179C288.377 115.303 288.648 115.365 288.954 115.365ZM298.748 110.725C299.309 110.725 299.849 110.82 300.368 111.008C300.89 111.196 301.355 111.496 301.763 111.908C302.175 112.32 302.5 112.867 302.738 113.549C302.979 114.227 303.102 115.06 303.106 116.047C303.106 116.974 303.001 117.801 302.791 118.529C302.585 119.254 302.289 119.87 301.902 120.377C301.515 120.885 301.048 121.272 300.501 121.539C299.954 121.801 299.343 121.933 298.668 121.933C297.94 121.933 297.298 121.793 296.74 121.512C296.183 121.228 295.733 120.843 295.392 120.356C295.055 119.866 294.851 119.316 294.78 118.705H297.054C297.143 119.103 297.33 119.412 297.614 119.632C297.898 119.848 298.249 119.957 298.668 119.957C299.379 119.957 299.918 119.648 300.288 119.03C300.657 118.408 300.843 117.558 300.847 116.478H300.772C300.609 116.798 300.389 117.073 300.112 117.304C299.835 117.531 299.517 117.707 299.158 117.831C298.803 117.956 298.425 118.018 298.024 118.018C297.381 118.018 296.808 117.867 296.303 117.565C295.799 117.263 295.401 116.848 295.11 116.318C294.819 115.789 294.673 115.186 294.673 114.507C294.67 113.776 294.839 113.124 295.179 112.553C295.52 111.981 295.996 111.533 296.607 111.21C297.221 110.883 297.935 110.722 298.748 110.725ZM298.764 112.537C298.406 112.537 298.086 112.622 297.805 112.792C297.528 112.963 297.308 113.192 297.145 113.479C296.985 113.767 296.907 114.088 296.911 114.443C296.911 114.802 296.989 115.125 297.145 115.413C297.305 115.697 297.521 115.924 297.795 116.095C298.072 116.262 298.388 116.345 298.743 116.345C299.009 116.345 299.256 116.295 299.483 116.196C299.711 116.097 299.908 115.96 300.075 115.786C300.245 115.608 300.378 115.404 300.474 115.173C300.57 114.942 300.618 114.697 300.618 114.438C300.614 114.094 300.533 113.778 300.373 113.49C300.213 113.202 299.993 112.972 299.712 112.798C299.432 112.624 299.116 112.537 298.764 112.537ZM305.612 121.922C305.26 121.922 304.958 121.798 304.706 121.549C304.458 121.297 304.333 120.995 304.333 120.644C304.333 120.296 304.458 119.997 304.706 119.749C304.958 119.5 305.26 119.376 305.612 119.376C305.953 119.376 306.251 119.5 306.507 119.749C306.762 119.997 306.89 120.296 306.89 120.644C306.89 120.878 306.83 121.093 306.709 121.288C306.592 121.48 306.437 121.635 306.246 121.752C306.054 121.865 305.843 121.922 305.612 121.922ZM312.479 121.933C311.918 121.929 311.377 121.835 310.855 121.651C310.336 121.466 309.871 121.166 309.459 120.75C309.047 120.335 308.72 119.784 308.479 119.099C308.241 118.414 308.122 117.572 308.122 116.574C308.126 115.658 308.23 114.839 308.436 114.119C308.646 113.394 308.944 112.78 309.331 112.276C309.722 111.771 310.189 111.388 310.732 111.125C311.275 110.859 311.884 110.725 312.559 110.725C313.287 110.725 313.93 110.867 314.487 111.152C315.045 111.432 315.492 111.814 315.83 112.297C316.171 112.78 316.377 113.321 316.448 113.921H314.173C314.084 113.542 313.898 113.243 313.614 113.027C313.33 112.81 312.978 112.702 312.559 112.702C311.849 112.702 311.309 113.011 310.94 113.629C310.574 114.246 310.388 115.086 310.381 116.148H310.455C310.618 115.825 310.839 115.55 311.116 115.322C311.396 115.092 311.714 114.916 312.069 114.795C312.428 114.671 312.806 114.609 313.204 114.609C313.85 114.609 314.425 114.761 314.93 115.067C315.434 115.369 315.831 115.784 316.123 116.313C316.414 116.842 316.559 117.448 316.559 118.13C316.559 118.868 316.387 119.525 316.043 120.1C315.702 120.676 315.224 121.127 314.61 121.453C313.999 121.777 313.289 121.936 312.479 121.933ZM312.469 120.122C312.824 120.122 313.142 120.037 313.422 119.866C313.703 119.696 313.923 119.465 314.083 119.174C314.242 118.882 314.322 118.556 314.322 118.193C314.322 117.831 314.242 117.506 314.083 117.219C313.926 116.931 313.71 116.702 313.433 116.532C313.156 116.361 312.84 116.276 312.485 116.276C312.218 116.276 311.971 116.326 311.744 116.425C311.52 116.524 311.323 116.663 311.153 116.841C310.986 117.018 310.855 117.224 310.759 117.458C310.663 117.689 310.615 117.936 310.615 118.199C310.615 118.55 310.695 118.872 310.855 119.163C311.018 119.454 311.238 119.687 311.515 119.861C311.796 120.035 312.113 120.122 312.469 120.122ZM324.166 119.738V119.163C324.166 118.726 324.258 118.325 324.443 117.959C324.631 117.59 324.903 117.295 325.258 117.075C325.617 116.851 326.053 116.739 326.568 116.739C327.09 116.739 327.529 116.849 327.884 117.07C328.243 117.29 328.513 117.584 328.694 117.954C328.878 118.32 328.971 118.723 328.971 119.163V119.738C328.971 120.175 328.878 120.578 328.694 120.947C328.509 121.313 328.237 121.606 327.879 121.826C327.52 122.05 327.083 122.162 326.568 122.162C326.046 122.162 325.608 122.05 325.253 121.826C324.898 121.606 324.628 121.313 324.443 120.947C324.258 120.578 324.166 120.175 324.166 119.738ZM325.716 119.163V119.738C325.716 119.99 325.776 120.228 325.897 120.452C326.021 120.676 326.245 120.788 326.568 120.788C326.892 120.788 327.112 120.678 327.229 120.457C327.35 120.237 327.41 119.997 327.41 119.738V119.163C327.41 118.904 327.353 118.662 327.24 118.439C327.126 118.215 326.902 118.103 326.568 118.103C326.249 118.103 326.027 118.215 325.903 118.439C325.778 118.662 325.716 118.904 325.716 119.163ZM318.568 113.495V112.92C318.568 112.48 318.662 112.077 318.85 111.711C319.038 111.342 319.31 111.047 319.665 110.827C320.024 110.606 320.457 110.496 320.965 110.496C321.49 110.496 321.931 110.606 322.286 110.827C322.641 111.047 322.911 111.342 323.095 111.711C323.28 112.077 323.372 112.48 323.372 112.92V113.495C323.372 113.936 323.278 114.339 323.09 114.705C322.905 115.07 322.634 115.363 322.275 115.583C321.92 115.8 321.483 115.908 320.965 115.908C320.446 115.908 320.008 115.798 319.649 115.578C319.294 115.354 319.024 115.061 318.839 114.699C318.658 114.333 318.568 113.932 318.568 113.495ZM320.128 112.92V113.495C320.128 113.755 320.189 113.994 320.309 114.214C320.434 114.435 320.652 114.545 320.965 114.545C321.291 114.545 321.513 114.435 321.631 114.214C321.751 113.994 321.812 113.755 321.812 113.495V112.92C321.812 112.661 321.755 112.419 321.641 112.196C321.528 111.972 321.302 111.86 320.965 111.86C320.649 111.86 320.43 111.974 320.309 112.201C320.189 112.428 320.128 112.668 320.128 112.92ZM319.271 121.784L326.771 110.875H328.166L320.666 121.784H319.271Z" fill="#101044"/>
<path d="M287.137 139.396V134.115H288.188V139.396H287.137ZM285.023 137.279V136.232H290.305V137.279H285.023ZM294.799 140.849C294.239 140.849 293.744 140.753 293.314 140.56C292.887 140.367 292.553 140.102 292.311 139.763C292.068 139.425 291.949 139.039 291.951 138.607C291.949 138.268 292.018 137.957 292.158 137.673C292.301 137.387 292.495 137.149 292.74 136.958C292.985 136.766 293.258 136.643 293.561 136.591V136.544C293.162 136.448 292.843 136.235 292.604 135.904C292.364 135.573 292.245 135.193 292.248 134.763C292.245 134.354 292.354 133.99 292.572 133.669C292.794 133.347 293.097 133.093 293.482 132.908C293.868 132.723 294.307 132.63 294.799 132.63C295.286 132.63 295.721 132.724 296.104 132.912C296.489 133.097 296.792 133.35 297.014 133.673C297.235 133.994 297.347 134.357 297.35 134.763C297.347 135.193 297.225 135.573 296.982 135.904C296.74 136.235 296.425 136.448 296.037 136.544V136.591C296.337 136.643 296.606 136.766 296.846 136.958C297.088 137.149 297.281 137.387 297.424 137.673C297.57 137.957 297.644 138.268 297.646 138.607C297.644 139.039 297.521 139.425 297.279 139.763C297.037 140.102 296.701 140.367 296.271 140.56C295.844 140.753 295.354 140.849 294.799 140.849ZM294.799 139.861C295.13 139.861 295.416 139.806 295.658 139.697C295.9 139.585 296.088 139.43 296.221 139.232C296.354 139.031 296.421 138.797 296.424 138.529C296.421 138.25 296.348 138.004 296.205 137.791C296.064 137.577 295.873 137.409 295.631 137.287C295.389 137.164 295.111 137.103 294.799 137.103C294.484 137.103 294.204 137.164 293.959 137.287C293.714 137.409 293.521 137.577 293.381 137.791C293.24 138.004 293.171 138.25 293.174 138.529C293.171 138.797 293.235 139.031 293.365 139.232C293.498 139.43 293.687 139.585 293.932 139.697C294.176 139.806 294.465 139.861 294.799 139.861ZM294.799 136.138C295.064 136.138 295.3 136.085 295.506 135.978C295.712 135.871 295.873 135.723 295.99 135.533C296.11 135.343 296.171 135.12 296.174 134.865C296.171 134.615 296.111 134.396 295.994 134.208C295.88 134.021 295.719 133.876 295.514 133.775C295.308 133.671 295.07 133.619 294.799 133.619C294.523 133.619 294.281 133.671 294.072 133.775C293.867 133.876 293.706 134.021 293.592 134.208C293.477 134.396 293.421 134.615 293.424 134.865C293.421 135.12 293.479 135.343 293.596 135.533C293.713 135.723 293.874 135.871 294.08 135.978C294.288 136.085 294.528 136.138 294.799 136.138ZM299.595 140.814C299.381 140.814 299.198 140.738 299.044 140.587C298.89 140.434 298.813 140.249 298.813 140.033C298.813 139.819 298.89 139.637 299.044 139.486C299.198 139.332 299.381 139.255 299.595 139.255C299.808 139.255 299.992 139.332 300.146 139.486C300.299 139.637 300.376 139.819 300.376 140.033C300.376 140.176 300.34 140.307 300.267 140.427C300.196 140.544 300.103 140.638 299.985 140.708C299.868 140.779 299.738 140.814 299.595 140.814ZM304.428 140.849C304.071 140.844 303.719 140.779 303.373 140.654C303.029 140.529 302.717 140.32 302.436 140.029C302.154 139.737 301.929 139.345 301.76 138.853C301.593 138.361 301.51 137.746 301.51 137.009C301.51 136.311 301.579 135.692 301.717 135.15C301.857 134.608 302.059 134.151 302.322 133.779C302.585 133.404 302.903 133.119 303.275 132.923C303.648 132.728 304.066 132.63 304.529 132.63C305.006 132.63 305.429 132.724 305.799 132.912C306.169 133.099 306.468 133.358 306.697 133.689C306.929 134.02 307.076 134.396 307.139 134.818H305.947C305.867 134.485 305.706 134.212 305.467 134.001C305.227 133.791 304.915 133.685 304.529 133.685C303.943 133.685 303.486 133.94 303.158 134.451C302.833 134.961 302.669 135.671 302.666 136.58H302.725C302.863 136.353 303.032 136.16 303.232 136.001C303.436 135.84 303.662 135.716 303.912 135.63C304.165 135.542 304.43 135.498 304.709 135.498C305.173 135.498 305.592 135.611 305.967 135.837C306.344 136.061 306.645 136.371 306.869 136.767C307.093 137.163 307.205 137.616 307.205 138.126C307.205 138.637 307.089 139.099 306.857 139.513C306.628 139.927 306.305 140.255 305.889 140.498C305.472 140.737 304.985 140.854 304.428 140.849ZM304.424 139.833C304.731 139.833 305.006 139.758 305.248 139.607C305.49 139.456 305.682 139.253 305.822 138.998C305.963 138.742 306.033 138.457 306.033 138.142C306.033 137.835 305.964 137.555 305.826 137.302C305.691 137.05 305.503 136.849 305.264 136.701C305.027 136.552 304.756 136.478 304.451 136.478C304.219 136.478 304.005 136.522 303.807 136.611C303.611 136.699 303.439 136.822 303.291 136.978C303.143 137.134 303.025 137.314 302.939 137.517C302.856 137.718 302.814 137.93 302.814 138.154C302.814 138.453 302.883 138.731 303.021 138.986C303.162 139.241 303.354 139.447 303.596 139.603C303.84 139.757 304.117 139.833 304.424 139.833ZM308.46 139.177V138.201L311.917 132.74H312.687V134.177H312.198L309.726 138.091V138.154H314.464V139.177H308.46ZM312.253 140.74V138.88L312.261 138.435V132.74H313.405V140.74H312.253ZM320.001 139.24V138.818C320.001 138.516 320.063 138.24 320.188 137.99C320.316 137.737 320.501 137.535 320.743 137.384C320.988 137.231 321.284 137.154 321.63 137.154C321.984 137.154 322.281 137.229 322.521 137.38C322.76 137.531 322.941 137.733 323.063 137.986C323.188 138.238 323.251 138.516 323.251 138.818V139.24C323.251 139.542 323.188 139.819 323.063 140.072C322.938 140.322 322.755 140.524 322.513 140.677C322.273 140.828 321.979 140.904 321.63 140.904C321.278 140.904 320.981 140.828 320.739 140.677C320.497 140.524 320.313 140.322 320.188 140.072C320.063 139.819 320.001 139.542 320.001 139.24ZM320.911 138.818V139.24C320.911 139.464 320.965 139.667 321.071 139.849C321.178 140.031 321.364 140.123 321.63 140.123C321.893 140.123 322.076 140.031 322.181 139.849C322.285 139.667 322.337 139.464 322.337 139.24V138.818C322.337 138.594 322.286 138.391 322.185 138.208C322.086 138.026 321.901 137.935 321.63 137.935C321.369 137.935 321.185 138.026 321.075 138.208C320.966 138.391 320.911 138.594 320.911 138.818ZM315.978 134.662V134.24C315.978 133.938 316.04 133.66 316.165 133.408C316.293 133.155 316.478 132.953 316.72 132.802C316.965 132.651 317.26 132.576 317.606 132.576C317.961 132.576 318.257 132.651 318.497 132.802C318.737 132.953 318.918 133.155 319.04 133.408C319.162 133.66 319.224 133.938 319.224 134.24V134.662C319.224 134.964 319.161 135.241 319.036 135.494C318.914 135.744 318.731 135.945 318.489 136.099C318.25 136.25 317.955 136.326 317.606 136.326C317.252 136.326 316.954 136.25 316.712 136.099C316.472 135.945 316.29 135.744 316.165 135.494C316.04 135.241 315.978 134.964 315.978 134.662ZM316.892 134.24V134.662C316.892 134.886 316.944 135.089 317.048 135.271C317.155 135.453 317.341 135.544 317.606 135.544C317.867 135.544 318.049 135.453 318.153 135.271C318.26 135.089 318.313 134.886 318.313 134.662V134.24C318.313 134.016 318.263 133.813 318.161 133.63C318.06 133.448 317.875 133.357 317.606 133.357C317.346 133.357 317.161 133.448 317.052 133.63C316.945 133.813 316.892 134.016 316.892 134.24ZM316.349 140.74L321.849 132.74H322.782L317.282 140.74H316.349Z" fill="#17BD8D"/>
<path d="M339.035 134.515L336 131.486L332.965 134.515" stroke="#17BD8D" stroke-width="1.5" stroke-miterlimit="10" stroke-linecap="round" stroke-linejoin="round"/>
<path d="M336 139.969V131.571" stroke="#17BD8D" stroke-width="1.5" stroke-miterlimit="10" stroke-linecap="round" stroke-linejoin="round"/>
<g clip-path="url(#clip2_11234_28038)">
<path d="M114.145 60.2291C111.503 58.9956 105.451 59.7261 102.435 59.5774C97.362 59.3209 92.301 59.0904 87.255 58.8868C87.0377 58.8637 86.8198 58.9236 86.645 59.0545C86.4725 59.1836 86.3574 59.3748 86.324 59.5874C86.081 61.0585 85.737 62.4018 86.324 63.773C86.336 63.8668 86.383 63.9527 86.456 64.0145C86.5291 64.0765 86.6221 64.1101 86.718 64.1093C90.665 64.4187 94.616 64.6822 98.569 64.8988C101.619 65.0634 104.655 65.2151 107.678 65.3528C109.348 65.4327 113.598 66.3409 115.066 65.5405C116.888 64.5235 115.754 60.9796 114.145 60.2291ZM113.882 63.803C113.507 64.4157 111.766 64.0594 110.967 64.0405C103.103 63.8529 95.24 63.4676 87.366 63.1912C87.406 62.7171 87.491 62.2481 87.619 61.789C87.666 61.3279 87.724 60.8708 87.791 60.4167C87.791 59.7581 88.155 59.788 88.884 60.5066C92.072 59.6563 97.284 60.8309 100.574 60.9796C103.862 61.1273 107.951 60.6533 111.048 61.4926C112.009 61.789 114.732 62.3908 113.882 63.764V63.804V63.803ZM111.282 68.3239C103.777 67.8698 95.672 66.4766 88.167 66.9706C85.36 67.1582 84.337 69.1652 85.429 72.0125C85.4502 72.0943 85.4971 72.1672 85.5627 72.2205C85.6284 72.2738 85.7094 72.3048 85.794 72.3089C94.214 73.1093 102.694 73.6931 111.154 73.8508C111.3 73.8571 111.445 73.8196 111.57 73.7431C111.695 73.6666 111.793 73.5547 111.854 73.4217C111.895 73.3328 111.917 73.2368 111.921 73.1392C111.829 71.7752 111.856 70.4059 112 69.0464C111.99 68.859 111.911 68.6818 111.779 68.5487C111.646 68.4156 111.469 68.3359 111.281 68.3249L111.282 68.3239ZM86.306 72.0813C86.286 72.1312 86.286 72.1312 86.306 72.0813V72.0813ZM107.637 72.3588C100.586 72.1901 93.544 71.775 86.503 71.4486C86.729 70.7171 87.025 69.6792 86.847 69.7879C87.941 68.3838 90.028 68.6602 91.516 68.7201C95.169 68.8878 98.823 69.0963 102.476 69.3139C104.516 69.4317 109.528 68.9277 110.356 70.5195C111.902 73.238 109.105 72.3877 107.637 72.3488V72.3588ZM108.588 77.0544C100.486 76.5767 92.3796 76.1762 84.27 75.8528C84.1621 75.8408 84.0529 75.8513 83.9493 75.8836C83.8457 75.9159 83.7499 75.9693 83.668 76.0404C83.4925 76.1931 83.3794 76.4048 83.35 76.6352C83.08 78.4645 82.72 80.1182 83.35 81.8587C83.362 81.9625 83.409 82.0583 83.48 82.1282C83.5495 82.1958 83.6429 82.2334 83.74 82.233C93.543 83.0593 103.387 83.6661 113.22 83.8308C113.319 83.8353 113.418 83.8183 113.51 83.7809C113.604 83.7424 113.689 83.685 113.76 83.6122C113.833 83.537 113.892 83.4487 113.932 83.3517C113.973 83.2519 113.996 83.1454 114 83.0374C113.66 77.3628 113.99 77.3628 108.588 77.0544ZM107.688 82.0793C99.915 81.8917 92.163 81.4955 84.391 81.208C84.521 80.6352 84.561 80.1062 84.661 79.4346C85.011 77.0095 84.731 77.3847 86.881 77.738C91.163 78.4426 95.884 78.1013 100.206 78.3109C102.426 78.4206 111.709 77.4626 112.369 80.9326C112.799 83.1811 109.349 82.0793 107.688 82.0793ZM72.292 50.8639C62.391 47.324 53.21 54.0695 48.573 62.3628C44.363 71.0494 44.515 83.1751 55.167 86.9884C64.714 90.3966 74.94 82.8118 78.897 74.5085C82.69 66.5594 81.839 54.2721 72.292 50.8639ZM60.534 59.2271C60.534 59.2271 60.534 59.2371 60.534 59.2271V59.2271ZM51.251 82.1032C47.193 77.4725 47.538 69.3199 50.389 63.4347C52.249 59.9949 54.8935 57.0398 58.109 54.808C58.809 55.6882 58.972 58.6204 59.885 59.5515H59.804H59.874C58.7239 60.1325 57.6247 60.8089 56.588 61.5734L56.375 61.7351C52.64 65.3968 52.55 72.6981 55.208 77.2091C53.7523 78.7174 52.4382 80.3556 51.282 82.1032H51.252H51.251ZM68.387 76.4905C65.059 78.7659 59.104 80.253 56.922 75.8129C55.117 72.1223 54.782 66.3668 57.856 63.3229C61.762 60.4507 67.586 57.7611 71.572 61.9577C75.935 66.5185 72.962 73.3957 68.417 76.4905H68.387Z" fill="#F39FA3"/>
</g>
<path d="M414 328.341C414 351.482 395.202 370.251 372 370.251C348.798 370.251 330 351.482 330 328.341C330 305.201 348.798 286.431 372 286.431C395.202 286.431 414 305.201 414 328.341Z" fill="#E93266" stroke="white" stroke-width="6"/>
<g clip-path="url(#clip3_11234_28038)">
<path d="M352.715 309.094V320.322H363.965V309.094H352.715ZM360.751 317.114H355.929V312.302H360.751V317.114Z" fill="white"/>
<path d="M352.715 336.361V347.588H363.965V336.361H352.715ZM360.751 344.381H355.929V339.569H360.751V344.381Z" fill="white"/>
<path d="M380.035 309.094V320.322H391.285V309.094H380.035ZM388.071 317.114H383.249V312.302H388.071V317.114Z" fill="white"/>
<path d="M388.071 323.53V333.153H380.035V336.361H391.285V323.53H388.071Z" fill="white"/>
<path d="M380.035 339.569V347.588H383.249V342.777H388.071V347.588H391.285V339.569H380.035Z" fill="white"/>
<path d="M367.18 309.094V312.302H373.608V320.322H376.823V309.094H367.18Z" fill="white"/>
<path d="M373.608 323.53V329.946H367.18V339.569H373.608V347.588H376.823V336.361H370.394V333.153H376.823V326.738H380.037V329.946H383.251V323.53H373.608Z" fill="white"/>
<path d="M370.394 342.777H367.18V347.588H370.394V342.777Z" fill="white"/>
<path d="M363.966 329.944H359.145V333.151H363.966V329.944Z" fill="white"/>
<path d="M367.179 315.51V323.53H352.715V333.153H355.929V326.738H370.394V315.51H367.179Z" fill="white"/>
</g>
<defs>
<filter id="filter0_d_11234_28038" x="24" y="268.419" width="233" height="156.83" filterUnits="userSpaceOnUse" color-interpolation-filters="sRGB">
<feFlood flood-opacity="0" result="BackgroundImageFix"/>
<feColorMatrix in="SourceAlpha" type="matrix" values="0 0 0 0 0 0 0 0 0 0 0 0 0 0 0 0 0 0 127 0" result="hardAlpha"/>
<feOffset dy="15"/>
<feGaussianBlur stdDeviation="18"/>
<feComposite in2="hardAlpha" operator="out"/>
<feColorMatrix type="matrix" values="0 0 0 0 0.0862745 0 0 0 0 0.0313726 0 0 0 0 0.192157 0 0 0 0.15 0"/>
<feBlend mode="normal" in2="BackgroundImageFix" result="effect1_dropShadow_11234_28038"/>
<feBlend mode="normal" in="SourceGraphic" in2="effect1_dropShadow_11234_28038" result="shape"/>
</filter>
<filter id="filter1_d_11234_28038" x="234" y="52.8518" width="252" height="156.83" filterUnits="userSpaceOnUse" color-interpolation-filters="sRGB">
<feFlood flood-opacity="0" result="BackgroundImageFix"/>
<feColorMatrix in="SourceAlpha" type="matrix" values="0 0 0 0 0 0 0 0 0 0 0 0 0 0 0 0 0 0 127 0" result="hardAlpha"/>
<feOffset dy="15"/>
<feGaussianBlur stdDeviation="18"/>
<feComposite in2="hardAlpha" operator="out"/>
<feColorMatrix type="matrix" values="0 0 0 0 0.0862745 0 0 0 0 0.0313726 0 0 0 0 0.192157 0 0 0 0.15 0"/>
<feBlend mode="normal" in2="BackgroundImageFix" result="effect1_dropShadow_11234_28038"/>
<feBlend mode="normal" in="SourceGraphic" in2="effect1_dropShadow_11234_28038" result="shape"/>
</filter>
<clipPath id="clip0_11234_28038">
<rect width="338.974" height="199.417" fill="white" transform="matrix(0.793828 -0.608142 0.609678 0.792649 111 311.932)"/>
</clipPath>
<clipPath id="clip1_11234_28038">
<rect width="22" height="21.956" fill="white" transform="translate(122 157.684)"/>
</clipPath>
<clipPath id="clip2_11234_28038">
<rect width="70" height="37.9239" fill="white" transform="translate(46 49.8999)"/>
</clipPath>
<clipPath id="clip3_11234_28038">
<rect width="38.5714" height="38.4942" fill="white" transform="translate(352.715 309.094)"/>
</clipPath>
</defs>
</svg>
