<svg width="24" height="24" viewBox="0 0 24 24" fill="none" xmlns="http://www.w3.org/2000/svg">
<path d="M12.9099 13.28V12.78H12.4099H9.31994C8.76368 12.78 8.45591 12.1186 8.82668 11.6888L16.3953 3.09039L16.3962 3.08928C16.7906 2.63862 17.5399 2.91921 17.5399 3.52003V10.72V11.22H18.0399H21.1299C21.701 11.22 21.9994 11.8837 21.6246 12.3097C21.6246 12.3097 21.6246 12.3097 21.6246 12.3097L14.0546 20.9097L14.0537 20.9108C13.6593 21.3614 12.9099 21.0809 12.9099 20.48V13.28Z" fill="#2161E0" stroke="#2161E0"/>
<path opacity="0.4" d="M8.5 4.75H1.5C1.09 4.75 0.75 4.41 0.75 4C0.75 3.59 1.09 3.25 1.5 3.25H8.5C8.91 3.25 9.25 3.59 9.25 4C9.25 4.41 8.91 4.75 8.5 4.75Z" fill="#2161E0"/>
<path opacity="0.4" d="M7.5 20.75H1.5C1.09 20.75 0.75 20.41 0.75 20C0.75 19.59 1.09 19.25 1.5 19.25H7.5C7.91 19.25 8.25 19.59 8.25 20C8.25 20.41 7.91 20.75 7.5 20.75Z" fill="#2161E0"/>
<path opacity="0.4" d="M4.5 12.75H1.5C1.09 12.75 0.75 12.41 0.75 12C0.75 11.59 1.09 11.25 1.5 11.25H4.5C4.91 11.25 5.25 11.59 5.25 12C5.25 12.41 4.91 12.75 4.5 12.75Z" fill="#2161E0"/>
</svg>
