<svg width="24" height="24" viewBox="0 0 24 24" fill="none" xmlns="http://www.w3.org/2000/svg">
<path opacity="0.4" d="M21 22.25H3C2.86614 22.25 2.75 22.1339 2.75 22C2.75 21.8661 2.86614 21.75 3 21.75H21C21.1339 21.75 21.25 21.8661 21.25 22C21.25 22.1339 21.1339 22.25 21 22.25Z" fill="#2161E0" stroke="#2161E0"/>
<path d="M4 8.88H5.59998C5.8771 8.88 6.09998 9.0994 6.09998 9.38V18C6.09998 18.2739 5.87383 18.5 5.59998 18.5H4C3.72614 18.5 3.5 18.2739 3.5 18V9.38C3.5 9.10615 3.72614 8.88 4 8.88Z" fill="#2161E0" stroke="#2161E0"/>
<path d="M11.2002 5.69H12.8002C13.074 5.69 13.3002 5.91614 13.3002 6.19V18C13.3002 18.2739 13.074 18.5 12.8002 18.5H11.2002C10.9263 18.5 10.7002 18.2739 10.7002 18V6.19C10.7002 5.91614 10.9263 5.69 11.2002 5.69Z" fill="#2161E0" stroke="#2161E0"/>
<path d="M18.4004 2.5H20.0004C20.2742 2.5 20.5004 2.72614 20.5004 3V18C20.5004 18.2739 20.2742 18.5 20.0004 18.5H18.4004C18.1265 18.5 17.9004 18.2739 17.9004 18V3C17.9004 2.72614 18.1265 2.5 18.4004 2.5Z" fill="#2161E0" stroke="#2161E0"/>
</svg>
